solid CATIA STL
  facet normal  0.000000e+000  1.000000e+000  0.000000e+000
    outer loop
      vertex -8.040450e+001  1.000000e+001  7.315085e+001
      vertex -7.794704e+001  1.000000e+001  7.143011e+001
      vertex -8.625990e+001  1.000000e+001  6.942054e+001
    endloop
  endfacet
  facet normal  -0.000000e+000  9.999999e-001  0.000000e+000
    outer loop
      vertex -8.625990e+001  1.000000e+001  6.942054e+001
      vertex -7.794704e+001  1.000000e+001  7.143011e+001
      vertex -8.081492e+001  1.000000e+001  6.733436e+001
    endloop
  endfacet
  facet normal  0.000000e+000  1.000000e+000  0.000000e+000
    outer loop
      vertex -8.625990e+001  1.000000e+001  6.942054e+001
      vertex -8.081492e+001  1.000000e+001  6.733436e+001
      vertex -8.573896e+001  1.000000e+001  6.646612e+001
    endloop
  endfacet
  facet normal  -0.000000e+000 -1.000000e+000  0.000000e+000
    outer loop
      vertex -8.573896e+001 -1.700000e+002  6.646612e+001
      vertex -8.081492e+001 -1.700000e+002  6.733436e+001
      vertex -8.625990e+001 -1.700000e+002  6.942054e+001
    endloop
  endfacet
  facet normal  0.000000e+000 -9.999999e-001  0.000000e+000
    outer loop
      vertex -8.625990e+001 -1.700000e+002  6.942054e+001
      vertex -8.081492e+001 -1.700000e+002  6.733436e+001
      vertex -7.794704e+001 -1.700000e+002  7.143011e+001
    endloop
  endfacet
  facet normal  -0.000000e+000 -1.000000e+000  0.000000e+000
    outer loop
      vertex -8.625990e+001 -1.700000e+002  6.942054e+001
      vertex -7.794704e+001 -1.700000e+002  7.143011e+001
      vertex -8.040450e+001 -1.700000e+002  7.315085e+001
    endloop
  endfacet
  facet normal  5.735770e-001  0.000000e+000  8.191516e-001
    outer loop
      vertex -7.794704e+001 -1.700000e+002  7.143011e+001
      vertex -7.794704e+001  1.000000e+001  7.143011e+001
      vertex -8.040450e+001 -1.700000e+002  7.315085e+001
    endloop
  endfacet
  facet normal  5.735770e-001  -0.000000e+000  8.191516e-001
    outer loop
      vertex -8.040450e+001 -1.700000e+002  7.315085e+001
      vertex -7.794704e+001  1.000000e+001  7.143011e+001
      vertex -8.040450e+001  1.000000e+001  7.315085e+001
    endloop
  endfacet
  facet normal -5.372999e-001  0.000000e+000  8.433912e-001
    outer loop
      vertex -8.040450e+001 -1.700000e+002  7.315085e+001
      vertex -8.040450e+001  1.000000e+001  7.315085e+001
      vertex -8.625990e+001 -1.700000e+002  6.942054e+001
    endloop
  endfacet
  facet normal -5.372999e-001  0.000000e+000  8.433912e-001
    outer loop
      vertex -8.625990e+001 -1.700000e+002  6.942054e+001
      vertex -8.040450e+001  1.000000e+001  7.315085e+001
      vertex -8.625990e+001  1.000000e+001  6.942054e+001
    endloop
  endfacet
  facet normal -9.848078e-001  0.000000e+000 -1.736477e-001
    outer loop
      vertex -8.573896e+001 -1.700000e+002  6.646612e+001
      vertex -8.625990e+001 -1.700000e+002  6.942054e+001
      vertex -8.573896e+001  1.000000e+001  6.646612e+001
    endloop
  endfacet
  facet normal -9.848078e-001  0.000000e+000 -1.736477e-001
    outer loop
      vertex -8.573896e+001  1.000000e+001  6.646612e+001
      vertex -8.625990e+001 -1.700000e+002  6.942054e+001
      vertex -8.625990e+001  1.000000e+001  6.942054e+001
    endloop
  endfacet
  facet normal  1.736480e-001  0.000000e+000 -9.848078e-001
    outer loop
      vertex -8.573896e+001 -1.700000e+002  6.646612e+001
      vertex -8.573896e+001  1.000000e+001  6.646612e+001
      vertex -8.081492e+001 -1.700000e+002  6.733436e+001
    endloop
  endfacet
  facet normal  1.736480e-001  0.000000e+000 -9.848078e-001
    outer loop
      vertex -8.081492e+001 -1.700000e+002  6.733436e+001
      vertex -8.573896e+001  1.000000e+001  6.646612e+001
      vertex -8.081492e+001  1.000000e+001  6.733436e+001
    endloop
  endfacet
  facet normal  8.191519e-001  0.000000e+000 -5.735767e-001
    outer loop
      vertex -8.081492e+001 -1.700000e+002  6.733436e+001
      vertex -8.081492e+001  1.000000e+001  6.733436e+001
      vertex -7.794704e+001 -1.700000e+002  7.143011e+001
    endloop
  endfacet
  facet normal  8.191519e-001  0.000000e+000 -5.735767e-001
    outer loop
      vertex -7.794704e+001 -1.700000e+002  7.143011e+001
      vertex -8.081492e+001  1.000000e+001  6.733436e+001
      vertex -7.794704e+001  1.000000e+001  7.143011e+001
    endloop
  endfacet
endsolid CATIA STL
