  0
SECTION
  2
HEADER
  9
$ACADVER
  1
AC1015
  9
$ACADMAINTVER
 70
     6
  9
$DWGCODEPAGE
  3
ANSI_1252
  9
$INSBASE
 10
0.0
 20
0.0
 30
0.0
  9
$EXTMIN
 10
0.0
 20
0.0
 30
0.0
  9
$EXTMAX
 10
221.741913
 20
283.381226
 30
2.0
  9
$LIMMIN
 10
0.0
 20
0.0
  9
$LIMMAX
 10
420.0
 20
297.0
  9
$ORTHOMODE
 70
     0
  9
$REGENMODE
 70
     1
  9
$FILLMODE
 70
     1
  9
$QTEXTMODE
 70
     0
  9
$MIRRTEXT
 70
     1
  9
$LTSCALE
 40
1.0
  9
$ATTMODE
 70
     1
  9
$TEXTSIZE
 40
2.5
  9
$TRACEWID
 40
1.0
  9
$TEXTSTYLE
  7
Standard
  9
$CLAYER
  8
0
  9
$CELTYPE
  6
ByLayer
  9
$CECOLOR
 62
   256
  9
$CELTSCALE
 40
1.0
  9
$DISPSILH
 70
     0
  9
$DIMSCALE
 40
1.0
  9
$DIMASZ
 40
2.5
  9
$DIMEXO
 40
0.625
  9
$DIMDLI
 40
3.75
  9
$DIMRND
 40
0.0
  9
$DIMDLE
 40
0.0
  9
$DIMEXE
 40
1.25
  9
$DIMTP
 40
0.0
  9
$DIMTM
 40
0.0
  9
$DIMTXT
 40
2.5
  9
$DIMCEN
 40
2.5
  9
$DIMTSZ
 40
0.0
  9
$DIMTOL
 70
     0
  9
$DIMLIM
 70
     0
  9
$DIMTIH
 70
     0
  9
$DIMTOH
 70
     0
  9
$DIMSE1
 70
     0
  9
$DIMSE2
 70
     0
  9
$DIMTAD
 70
     1
  9
$DIMZIN
 70
     8
  9
$DIMBLK
  1

  9
$DIMASO
 70
     1
  9
$DIMSHO
 70
     1
  9
$DIMPOST
  1

  9
$DIMAPOST
  1

  9
$DIMALT
 70
     0
  9
$DIMALTD
 70
     3
  9
$DIMALTF
 40
0.03937
  9
$DIMLFAC
 40
1.0
  9
$DIMTOFL
 70
     1
  9
$DIMTVP
 40
0.0
  9
$DIMTIX
 70
     0
  9
$DIMSOXD
 70
     0
  9
$DIMSAH
 70
     0
  9
$DIMBLK1
  1

  9
$DIMBLK2
  1

  9
$DIMSTYLE
  2

  9
$DIMCLRD
 70
     0
  9
$DIMCLRE
 70
     0
  9
$DIMCLRT
 70
     0
  9
$DIMTFAC
 40
1.0
  9
$DIMGAP
 40
0.625
  9
$DIMJUST
 70
     0
  9
$DIMSD1
 70
     0
  9
$DIMSD2
 70
     0
  9
$DIMTOLJ
 70
     0
  9
$DIMTZIN
 70
     8
  9
$DIMALTZ
 70
     0
  9
$DIMALTTZ
 70
     0
  9
$DIMUPT
 70
     0
  9
$DIMDEC
 70
     2
  9
$DIMTDEC
 70
     2
  9
$DIMALTU
 70
     2
  9
$DIMALTTD
 70
     3
  9
$DIMTXSTY
  7
Standard
  9
$DIMAUNIT
 70
     0
  9
$DIMADEC
 70
     0
  9
$DIMALTRND
 40
0.0
  9
$DIMAZIN
 70
     0
  9
$DIMDSEP
 70
    44
  9
$DIMATFIT
 70
     0
  9
$DIMFRAC
 70
     0
  9
$DIMLDRBLK
  1

  9
$DIMLUNIT
 70
     2
  9
$DIMLWD
 70
    -2
  9
$DIMLWE
 70
    -2
  9
$DIMTMOVE
 70
     0
  9
$LUNITS
 70
     2
  9
$LUPREC
 70
     4
  9
$SKETCHINC
 40
1.0
  9
$FILLETRAD
 40
2.5
  9
$AUNITS
 70
     0
  9
$AUPREC
 70
     0
  9
$MENU
  1
.
  9
$ELEVATION
 40
0.0
  9
$PELEVATION
 40
0.0
  9
$THICKNESS
 40
0.0
  9
$LIMCHECK
 70
     0
  9
$CHAMFERA
 40
2.5
  9
$CHAMFERB
 40
2.5
  9
$CHAMFERC
 40
0.0
  9
$CHAMFERD
 40
0.0
  9
$SKPOLY
 70
     0
  9
$TDCREATE
 40
0.000000000
  9
$TDUCREATE
 40
0.000000000
  9
$TDUPDATE
 40
0.000000000
  9
$TDUUPDATE
 40
0.000000000
  9
$TDINDWG
 40
0.0000000000
  9
$TDUSRTIMER
 40
0.0000000000
  9
$USRTIMER
 70
     1
  9
$ANGBASE
 50
0.0
  9
$ANGDIR
 70
     0
  9
$PDMODE
 70
     0
  9
$PDSIZE
 40
0.0
  9
$PLINEWID
 40
0.0
  9
$SPLFRAME
 70
     0
  9
$SPLINETYPE
 70
     6
  9
$SPLINESEGS
 70
     8
  9
$HANDSEED
  5
26D
  9
$SURFTAB1
 70
     6
  9
$SURFTAB2
 70
     6
  9
$SURFTYPE
 70
     6
  9
$SURFU
 70
     6
  9
$SURFV
 70
     6
  9
$UCSBASE
  2

  9
$UCSNAME
  2

  9
$UCSORG
 10
0.0
 20
0.0
 30
0.0
  9
$UCSXDIR
 10
1.0
 20
0.0
 30
0.0
  9
$UCSYDIR
 10
0.0
 20
1.0
 30
0.0
  9
$UCSORTHOREF
  2

  9
$UCSORTHOVIEW
 70
     1
  9
$UCSORGTOP
 10
0.0
 20
0.0
 30
0.0
  9
$UCSORGBOTTOM
 10
0.0
 20
0.0
 30
0.0
  9
$UCSORGLEFT
 10
0.0
 20
0.0
 30
0.0
  9
$UCSORGRIGHT
 10
0.0
 20
0.0
 30
0.0
  9
$UCSORGFRONT
 10
0.0
 20
0.0
 30
0.0
  9
$UCSORGBACK
 10
0.0
 20
0.0
 30
0.0
  9
$PUCSBASE
  2

  9
$PUCSNAME
  2

  9
$PUCSORG
 10
0.0
 20
0.0
 30
0.0
  9
$PUCSXDIR
 10
1.0
 20
0.0
 30
0.0
  9
$PUCSYDIR
 10
0.0
 20
1.0
 30
0.0
  9
$PUCSORTHOREF
  2

  9
$PUCSORTHOVIEW
 70
     0
  9
$PUCSORGTOP
 10
0.0
 20
0.0
 30
0.0
  9
$PUCSORGBOTTOM
 10
0.0
 20
0.0
 30
0.0
  9
$PUCSORGLEFT
 10
0.0
 20
0.0
 30
0.0
  9
$PUCSORGRIGHT
 10
0.0
 20
0.0
 30
0.0
  9
$PUCSORGFRONT
 10
0.0
 20
0.0
 30
0.0
  9
$PUCSORGBACK
 10
0.0
 20
0.0
 30
0.0
  9
$USERI1
 70
     0
  9
$USERI2
 70
     0
  9
$USERI3
 70
     0
  9
$USERI4
 70
     0
  9
$USERI5
 70
     0
  9
$USERR1
 40
0.0
  9
$USERR2
 40
0.0
  9
$USERR3
 40
0.0
  9
$USERR4
 40
0.0
  9
$USERR5
 40
0.0
  9
$WORLDVIEW
 70
     1
  9
$SHADEDGE
 70
     3
  9
$SHADEDIF
 70
    70
  9
$TILEMODE
 70
     1
  9
$MAXACTVP
 70
    48
  9
$PINSBASE
 10
0.0
 20
0.0
 30
0.0
  9
$PLIMCHECK
 70
     0
  9
$PEXTMIN
 10
0.0
 20
0.0
 30
0.0
  9
$PEXTMAX
 10
221.741913
 20
283.381226
 30
2.0
  9
$PLIMMIN
 10
0.0
 20
0.0
  9
$PLIMMAX
 10
420.0
 20
297.0
  9
$UNITMODE
 70
     0
  9
$VISRETAIN
 70
     0
  9
$PLINEGEN
 70
     0
  9
$PSLTSCALE
 70
     1
  9
$TREEDEPTH
 70
  3020
  9
$CMLSTYLE
  2
Standard
  9
$CMLJUST
 70
     0
  9
$CMLSCALE
 40
20.0
  9
$PROXYGRAPHICS
 70
     1
  9
$MEASUREMENT
 70
     1
  9
$CELWEIGHT
370
    -1
  9
$ENDCAPS
280
     0
  9
$JOINSTYLE
280
     0
  9
$LWDISPLAY
290
     0
  9
$INSUNITS
 70
     0
  9
$HYPERLINKBASE
  1

  9
$STYLESHEET
  1

  9
$XEDIT
290
     1
  9
$CEPSNTYPE
380
     0
  9
$PSTYLEMODE
290
     0
  9
$FINGERPRINTGUID
  2

  9
$VERSIONGUID
  2

  9
$EXTNAMES
290
     0
  9
$PSVPSCALE
 40
0.0
  0
ENDSEC
  0
SECTION
  2
CLASSES
  0
CLASS
  1
LWPOLYLINE
  2
AcDbPolyline
  3
AutoCAD 2000
 90
        0
280
     0
281
     1
  0
CLASS
  1
IMAGE
  2
AcDbRasterImage
  3
ISM
 90
      127
280
     0
281
     1
  0
CLASS
  1
OLE2FRAME
  2
AcDbOle2Frame
  3
AutoCAD 2000
 90
        0
280
     0
281
     1
  0
CLASS
  1
HATCH
  2
AcDbHatch
  3
AutoCAD 2000
 90
        0
280
     0
281
     1
  0
CLASS
  1
DICTIONARYVAR
  2
AcDbDictionaryVar
  3
AutoCAD 2000
 90
        0
280
     0
281
     0
  0
CLASS
  1
RASTERVARIABLES
  2
AcDbRasterVariables
  3
ISM
 90
        0
280
     0
281
     0
  0
CLASS
  1
IMAGEDEF
  2
AcDbRasterImageDef
  3
ISM
 90
        0
280
     0
281
     0
  0
CLASS
  1
IMAGEDEF_REACTOR
  2
AcDbRasterImageDefReactor
  3
ISM
 90
        1
280
     0
281
     0
  0
CLASS
  1
IDBUFFER
  2
AcDbIdBuffer
  3
AutoCAD 2000
 90
        0
280
     0
281
     0
  0
CLASS
  1
SPATIAL_FILTER
  2
AcDbSpatialFilter
  3
AutoCAD 2000
 90
        0
280
     0
281
     0
  0
CLASS
  1
XRECORD
  2
AcDbXrecord
  3
AutoCAD 2000
 90
        0
280
     0
281
     0
  0
CLASS
  1
SORTENTSTABLE
  2
AcDbSortentsTable
  3
AutoCAD 2000
 90
        0
280
     0
281
     0
  0
CLASS
  1
LAYER_INDEX
  2
AcDbLayerIndex
  3
AutoCAD 2000
 90
        0
280
     0
281
     0
  0
CLASS
  1
SPATIAL_INDEX
  2
AcDbSpatialIndex
  3
AutoCAD 2000
 90
        0
280
     0
281
     0
  0
CLASS
  1
OBJECT_PTR
  2
CAseDLPNTableRecord
  3
"ASE-LPNTableRecord"
 90
        1
280
     0
281
     0
  0
CLASS
  1
LAYOUT
  2
AcDbLayout
  3
AutoCAD 2000
 90
        0
280
     0
281
     0
  0
CLASS
  1
PLOTSETTINGS
  2
AcDbPlotSettings
  3
AutoCAD 2000
 90
        0
280
     0
281
     0
  0
CLASS
  1
ACDBDICTIONARYWDFLT
  2
AcDbDictionaryWithDefault
  3
AutoCAD 2000
 90
        0
280
     0
281
     0
  0
CLASS
  1
ACDBPLACEHOLDER
  2
AcDbPlaceHolder
  3
AutoCAD 2000
 90
        0
280
     0
281
     0
  0
CLASS
  1
VBA_PROJECT
  2
AcDbVbaProject
  3
acadvba
 90
        0
280
     0
281
     0
  0
CLASS
  1
WIPEOUT
  2
AcDbWipeout
  3
WipeOut|AutoCAD Express Tool|expresstools@autodesk.com
 90
      127
280
     0
281
     1
  0
CLASS
  1
WIPEOUTVARIABLES
  2
AcDbWipeoutVariables
  3
WipeOut|AutoCAD Express Tool|expresstools@autodesk.com
 90
        0
280
     0
281
     0
  0
CLASS
  1
RTEXT
  2
RText
  3
RText|AutoCAD Express Tool|expresstools@autodesk.com
 90
        0
280
     0
281
     1
  0
CLASS
  1
ARCALIGNEDTEXT
  2
AcDbArcAlignedText
  3
ATEXT|AutoCAD Express Tool|expresstools@autodesk.com
 90
        0
280
     0
281
     1
  0
ENDSEC
  0
SECTION
  2
TABLES
  0
TABLE
  2
VPORT
  5
7
100
AcDbSymbolTable
 70
     1
  0
VPORT
  5
15
100
AcDbSymbolTableRecord
100
AcDbViewportTableRecord
  2
*ACTIVE
 70
     0
 10
0.0
 20
0.0
 11
1.0
 21
1.0
 12
6.591288
 22
4.579184
 13
0.0
 23
0.0
 14
1.0
 24
1.0
 15
0.0
 25
0.0
 16
0.0
 26
0.0
 36
1.0
 17
0.0
 27
0.0
 37
0.0
 40
9.158369
 41
0.688564
 42
50.0
 43
0.0
 44
0.0
 50
0.0
 51
0.0
 71
     0
 72
   100
 73
     1
 74
     1
 75
     0
 76
     0
 77
     0
 78
     0
281
     0
 65
     0
110
0.0
120
0.0
130
0.0
111
1.0
121
0.0
131
0.0
112
0.0
122
1.0
132
0.0
345
0
346
0
 79
     0
146
0.0
  0
ENDTAB
  0
TABLE
  2
LTYPE
  5
4
100
AcDbSymbolTable
 70
     3
  0
LTYPE
  5
11
100
AcDbSymbolTableRecord
100
AcDbLinetypeTableRecord
  2
ByBlock
 70
    64
  3

 72
    65
 73
     0
 40
0.0
  0
LTYPE
  5
12
100
AcDbSymbolTableRecord
100
AcDbLinetypeTableRecord
  2
ByLayer
 70
    64
  3

 72
    65
 73
     0
 40
0.0
  0
LTYPE
  5
13
100
AcDbSymbolTableRecord
100
AcDbLinetypeTableRecord
  2
Continuous
 70
    64
  3
Solid line
 72
    65
 73
     0
 40
0.0
  0
ENDTAB
  0
TABLE
  2
LAYER
  5
2
100
AcDbSymbolTable
 70
     1
  0
LAYER
  5
14
100
AcDbSymbolTableRecord
100
AcDbLayerTableRecord
  2
0
 70
     0
 62
     7
  6
Continuous
290
     1
370
    -3
390
1D
  0
ENDTAB
  0
TABLE
  2
STYLE
  5
3
100
AcDbSymbolTable
 70
     1
  0
STYLE
  5
17
100
AcDbSymbolTableRecord
100
AcDbTextStyleTableRecord
  2
Standard
 70
     0
 40
0.0
 41
1.0
 50
0.0
 71
     0
 42
0.0
  3
txt
  4

  0
ENDTAB
  0
TABLE
  2
VIEW
  5
5
100
AcDbSymbolTable
 70
     0
  0
ENDTAB
  0
TABLE
  2
UCS
  5
6
100
AcDbSymbolTable
 70
     0
  0
ENDTAB
  0
TABLE
  2
APPID
  5
8
100
AcDbSymbolTable
 70
     1
  0
APPID
  5
16
100
AcDbSymbolTableRecord
100
AcDbRegAppTableRecord
  2
ACAD
 70
     0
  0
ENDTAB
  0
TABLE
  2
DIMSTYLE
  5
9
100
AcDbSymbolTable
 70
     1
100
AcDbDimStyleTable
 71
     0
  0
DIMSTYLE
105
18
100
AcDbSymbolTableRecord
100
AcDbDimStyleTableRecord
  2
Standard
 70
     0
  3

  4

 40
1.0
 41
0.18
 42
0.0625
 43
0.38
 44
0.18
 45
0.0
 46
0.0
 47
0.0
 48
0.0
 71
     0
 72
     0
 73
     1
 74
     1
 75
     0
 76
     0
 77
     0
 78
     0
 79
     0
140
0.18
141
0.09
142
0.0
143
25.4
144
1.0
145
0.0
146
1.0
147
0.09
148
0.0
170
     0
171
     2
172
     0
173
     0
174
     0
175
     0
176
     0
177
     0
178
     0
179
     0
271
     4
272
     4
273
     2
274
     2
275
     0
276
     0
277
     2
278
    46
279
     0
280
     0
281
     0
282
     0
283
     1
284
     0
285
     0
286
     0
288
     0
289
     3
340
17
341
0
342
0
343
0
344
0
371
    -2
372
    -2
  0
ENDTAB
  0
TABLE
  2
BLOCK_RECORD
  5
1
100
AcDbSymbolTable
 70
     0
  0
BLOCK_RECORD
  5
A
100
AcDbSymbolTableRecord
100
AcDbBlockTableRecord
  2
*MODEL_SPACE
340
20
  0
BLOCK_RECORD
  5
B
100
AcDbSymbolTableRecord
100
AcDbBlockTableRecord
  2
*PAPER_SPACE
340
21
  0
ENDTAB
  0
ENDSEC
  0
SECTION
  2
BLOCKS
  0
BLOCK
  5
D
100
AcDbEntity
  8
0
390
0
100
AcDbBlockBegin
  2
*MODEL_SPACE
 70
     0
 10
0.0
 20
0.0
 30
0.0
  3
*MODEL_SPACE
  1

  0
ENDBLK
  5
E
100
AcDbEntity
  8
0
390
0
100
AcDbBlockEnd
  0
BLOCK
  5
F
100
AcDbEntity
 67
     1
  8
0
390
0
100
AcDbBlockBegin
  2
*PAPER_SPACE
 70
     0
 10
0.0
 20
0.0
 30
0.0
  3
*PAPER_SPACE
  1

  0
ENDBLK
  5
10
100
AcDbEntity
 67
     1
  8
0
390
0
100
AcDbBlockEnd
  0
ENDSEC
  0
SECTION
  2
ENTITIES
  0
VIEWPORT
  5
26C
100
AcDbEntity
 67
     1
  8
0
370
     0
390
0
 62
     0
 48
0.0
100
AcDbViewport
 10
0.0
 20
0.0
 30
0.0
 40
1000.0
 41
1000.0
 68
     1
 69
     1
 12
0.0
 22
0.0
 13
0.0
 23
0.0
 14
1.0
 24
1.0
 15
1.0
 25
1.0
 16
0.0
 26
0.0
 36
1.0
 17
0.0
 27
0.0
 37
0.0
 42
50.0
 43
0.0
 44
0.0
 45
1000.0
 50
0.0
 51
0.0
 72
   100
 90
        0
340
0
  1

281
     0
 71
     0
 74
     1
110
0.0
120
0.0
130
0.0
111
1.0
121
0.0
131
0.0
112
0.0
122
1.0
132
0.0
345
0
346
0
 79
     0
146
0.0
  0
LINE
  5
24
100
AcDbEntity
  8
0
370
    35
390
0
 62
     7
100
AcDbLine
 10
173.353439
 20
280.709167
 30
0.0
 11
13.353436
 21
280.709167
 31
0.0
210
0.0
220
0.0
230
1.0
  0
LINE
  5
25
100
AcDbEntity
  8
0
370
    35
390
0
 62
     7
100
AcDbLine
 10
13.353436
 20
280.709167
 30
0.0
 11
13.353436
 21
246.046082
 31
0.0
210
0.0
220
0.0
230
1.0
  0
LINE
  5
26
100
AcDbEntity
  8
0
370
    35
390
0
 62
     7
100
AcDbLine
 10
13.353436
 20
246.046082
 30
0.0
 11
173.353439
 21
246.046082
 31
0.0
210
0.0
220
0.0
230
1.0
  0
LINE
  5
27
100
AcDbEntity
  8
0
370
    35
390
0
 62
     7
100
AcDbLine
 10
173.353439
 20
280.709167
 30
0.0
 11
173.353439
 21
246.046082
 31
0.0
210
0.0
220
0.0
230
1.0
  0
POLYLINE
  5
28
100
AcDbEntity
  8
0
370
    13
390
0
 62
     7
100
AcDb2dPolyline
 66
     1
 10
0.0
 20
0.0
 30
0.0
 70
     1
 71
    53
  0
VERTEX
  5
29
100
AcDbEntity
  8
0
370
     0
390
0
100
AcDbVertex
100
AcDb2dVertex
 10
216.642487
 20
255.374893
 30
0.0
  0
VERTEX
  5
2A
100
AcDbEntity
  8
0
370
     0
390
0
100
AcDbVertex
100
AcDb2dVertex
 10
216.677795
 20
255.374893
 30
0.0
  0
VERTEX
  5
2B
100
AcDbEntity
  8
0
370
     0
390
0
100
AcDbVertex
100
AcDb2dVertex
 10
217.161942
 20
255.455597
 30
0.0
  0
VERTEX
  5
2C
100
AcDbEntity
  8
0
370
     0
390
0
100
AcDbVertex
100
AcDb2dVertex
 10
217.525055
 20
255.692627
 30
0.0
  0
VERTEX
  5
2D
100
AcDbEntity
  8
0
370
     0
390
0
100
AcDbVertex
100
AcDb2dVertex
 10
217.75705
 20
256.065826
 30
0.0
  0
VERTEX
  5
2E
100
AcDbEntity
  8
0
370
     0
390
0
100
AcDbVertex
100
AcDb2dVertex
 10
217.842773
 20
256.560059
 30
0.0
  0
VERTEX
  5
2F
100
AcDbEntity
  8
0
370
     0
390
0
100
AcDbVertex
100
AcDb2dVertex
 10
217.75705
 20
257.084564
 30
0.0
  0
VERTEX
  5
30
100
AcDbEntity
  8
0
370
     0
390
0
100
AcDbVertex
100
AcDb2dVertex
 10
217.535141
 20
257.477936
 30
0.0
  0
VERTEX
  5
31
100
AcDbEntity
  8
0
370
     0
390
0
100
AcDbVertex
100
AcDb2dVertex
 10
217.182114
 20
257.730103
 30
0.0
  0
VERTEX
  5
32
100
AcDbEntity
  8
0
370
     0
390
0
100
AcDbVertex
100
AcDb2dVertex
 10
216.728226
 20
257.820862
 30
0.0
  0
VERTEX
  5
33
100
AcDbEntity
  8
0
370
     0
390
0
100
AcDbVertex
100
AcDb2dVertex
 10
216.430679
 20
257.780518
 30
0.0
  0
VERTEX
  5
34
100
AcDbEntity
  8
0
370
     0
390
0
100
AcDbVertex
100
AcDb2dVertex
 10
216.188599
 20
257.669556
 30
0.0
  0
VERTEX
  5
35
100
AcDbEntity
  8
0
370
     0
390
0
100
AcDbVertex
100
AcDb2dVertex
 10
216.001999
 20
257.488007
 30
0.0
  0
VERTEX
  5
36
100
AcDbEntity
  8
0
370
     0
390
0
100
AcDbVertex
100
AcDb2dVertex
 10
215.865829
 20
257.245941
 30
0.0
  0
VERTEX
  5
37
100
AcDbEntity
  8
0
370
     0
390
0
100
AcDbVertex
100
AcDb2dVertex
 10
215.593506
 20
257.573761
 30
0.0
  0
VERTEX
  5
38
100
AcDbEntity
  8
0
370
     0
390
0
100
AcDbVertex
100
AcDb2dVertex
 10
215.15979
 20
257.689728
 30
0.0
  0
VERTEX
  5
39
100
AcDbEntity
  8
0
370
     0
390
0
100
AcDbVertex
100
AcDb2dVertex
 10
214.766418
 20
257.614105
 30
0.0
  0
VERTEX
  5
3A
100
AcDbEntity
  8
0
370
     0
390
0
100
AcDbVertex
100
AcDb2dVertex
 10
214.468857
 20
257.397247
 30
0.0
  0
VERTEX
  5
3B
100
AcDbEntity
  8
0
370
     0
390
0
100
AcDbVertex
100
AcDb2dVertex
 10
214.282257
 20
257.04422
 30
0.0
  0
VERTEX
  5
3C
100
AcDbEntity
  8
0
370
     0
390
0
100
AcDbVertex
100
AcDb2dVertex
 10
214.216705
 20
256.560059
 30
0.0
  0
VERTEX
  5
3D
100
AcDbEntity
  8
0
370
     0
390
0
100
AcDbVertex
100
AcDb2dVertex
 10
214.297394
 20
256.106171
 30
0.0
  0
VERTEX
  5
3E
100
AcDbEntity
  8
0
370
     0
390
0
100
AcDbVertex
100
AcDb2dVertex
 10
214.519287
 20
255.758179
 30
0.0
  0
VERTEX
  5
3F
100
AcDbEntity
  8
0
370
     0
390
0
100
AcDbVertex
100
AcDb2dVertex
 10
214.872314
 20
255.531235
 30
0.0
  0
VERTEX
  5
40
100
AcDbEntity
  8
0
370
     0
390
0
100
AcDbVertex
100
AcDb2dVertex
 10
215.341339
 20
255.455597
 30
0.0
  0
VERTEX
  5
41
100
AcDbEntity
  8
0
370
     0
390
0
100
AcDbVertex
100
AcDb2dVertex
 10
215.376648
 20
255.455597
 30
0.0
  0
VERTEX
  5
42
100
AcDbEntity
  8
0
370
     0
390
0
100
AcDbVertex
100
AcDb2dVertex
 10
215.376648
 20
255.904434
 30
0.0
  0
VERTEX
  5
43
100
AcDbEntity
  8
0
370
     0
390
0
100
AcDbVertex
100
AcDb2dVertex
 10
215.053879
 20
255.944778
 30
0.0
  0
VERTEX
  5
44
100
AcDbEntity
  8
0
370
     0
390
0
100
AcDbVertex
100
AcDb2dVertex
 10
214.821884
 20
256.075897
 30
0.0
  0
VERTEX
  5
45
100
AcDbEntity
  8
0
370
     0
390
0
100
AcDbVertex
100
AcDb2dVertex
 10
214.680679
 20
256.28772
 30
0.0
  0
VERTEX
  5
46
100
AcDbEntity
  8
0
370
     0
390
0
100
AcDbVertex
100
AcDb2dVertex
 10
214.630249
 20
256.585266
 30
0.0
  0
VERTEX
  5
47
100
AcDbEntity
  8
0
370
     0
390
0
100
AcDbVertex
100
AcDb2dVertex
 10
214.670593
 20
256.847534
 30
0.0
  0
VERTEX
  5
48
100
AcDbEntity
  8
0
370
     0
390
0
100
AcDbVertex
100
AcDb2dVertex
 10
214.776505
 20
257.039154
 30
0.0
  0
VERTEX
  5
49
100
AcDbEntity
  8
0
370
     0
390
0
100
AcDbVertex
100
AcDb2dVertex
 10
214.947968
 20
257.155151
 30
0.0
  0
VERTEX
  5
4A
100
AcDbEntity
  8
0
370
     0
390
0
100
AcDbVertex
100
AcDb2dVertex
 10
215.179962
 20
257.200562
 30
0.0
  0
VERTEX
  5
4B
100
AcDbEntity
  8
0
370
     0
390
0
100
AcDbVertex
100
AcDb2dVertex
 10
215.427078
 20
257.155151
 30
0.0
  0
VERTEX
  5
4C
100
AcDbEntity
  8
0
370
     0
390
0
100
AcDbVertex
100
AcDb2dVertex
 10
215.593506
 20
257.034119
 30
0.0
  0
VERTEX
  5
4D
100
AcDbEntity
  8
0
370
     0
390
0
100
AcDbVertex
100
AcDb2dVertex
 10
215.694366
 20
256.822296
 30
0.0
  0
VERTEX
  5
4E
100
AcDbEntity
  8
0
370
     0
390
0
100
AcDbVertex
100
AcDb2dVertex
 10
215.724625
 20
256.534851
 30
0.0
  0
VERTEX
  5
4F
100
AcDbEntity
  8
0
370
     0
390
0
100
AcDbVertex
100
AcDb2dVertex
 10
215.719589
 20
256.338165
 30
0.0
  0
VERTEX
  5
50
100
AcDbEntity
  8
0
370
     0
390
0
100
AcDbVertex
100
AcDb2dVertex
 10
216.117996
 20
256.338165
 30
0.0
  0
VERTEX
  5
51
100
AcDbEntity
  8
0
370
     0
390
0
100
AcDbVertex
100
AcDb2dVertex
 10
216.10791
 20
256.585266
 30
0.0
  0
VERTEX
  5
52
100
AcDbEntity
  8
0
370
     0
390
0
100
AcDbVertex
100
AcDb2dVertex
 10
216.153305
 20
256.902985
 30
0.0
  0
VERTEX
  5
53
100
AcDbEntity
  8
0
370
     0
390
0
100
AcDbVertex
100
AcDb2dVertex
 10
216.274338
 20
257.140015
 30
0.0
  0
VERTEX
  5
54
100
AcDbEntity
  8
0
370
     0
390
0
100
AcDbVertex
100
AcDb2dVertex
 10
216.471024
 20
257.28125
 30
0.0
  0
VERTEX
  5
55
100
AcDbEntity
  8
0
370
     0
390
0
100
AcDbVertex
100
AcDb2dVertex
 10
216.728226
 20
257.331665
 30
0.0
  0
VERTEX
  5
56
100
AcDbEntity
  8
0
370
     0
390
0
100
AcDbVertex
100
AcDb2dVertex
 10
217.020737
 20
257.276184
 30
0.0
  0
VERTEX
  5
57
100
AcDbEntity
  8
0
370
     0
390
0
100
AcDbVertex
100
AcDb2dVertex
 10
217.237595
 20
257.129944
 30
0.0
  0
VERTEX
  5
58
100
AcDbEntity
  8
0
370
     0
390
0
100
AcDbVertex
100
AcDb2dVertex
 10
217.373764
 20
256.897949
 30
0.0
  0
VERTEX
  5
59
100
AcDbEntity
  8
0
370
     0
390
0
100
AcDbVertex
100
AcDb2dVertex
 10
217.419144
 20
256.590332
 30
0.0
  0
VERTEX
  5
5A
100
AcDbEntity
  8
0
370
     0
390
0
100
AcDbVertex
100
AcDb2dVertex
 10
217.368713
 20
256.272583
 30
0.0
  0
VERTEX
  5
5B
100
AcDbEntity
  8
0
370
     0
390
0
100
AcDbVertex
100
AcDb2dVertex
 10
217.217422
 20
256.040619
 30
0.0
  0
VERTEX
  5
5C
100
AcDbEntity
  8
0
370
     0
390
0
100
AcDbVertex
100
AcDb2dVertex
 10
216.975342
 20
255.894348
 30
0.0
  0
VERTEX
  5
5D
100
AcDbEntity
  8
0
370
     0
390
0
100
AcDbVertex
100
AcDb2dVertex
 10
216.642487
 20
255.838882
 30
0.0
  0
SEQEND
  5
5E
100
AcDbEntity
  8
0
370
     0
390
0
  0
POLYLINE
  5
5F
100
AcDbEntity
  8
0
370
    13
390
0
 62
     7
100
AcDb2dPolyline
 66
     1
 10
0.0
 20
0.0
 30
0.0
 70
     1
 71
    11
  0
VERTEX
  5
60
100
AcDbEntity
  8
0
370
     0
390
0
100
AcDbVertex
100
AcDb2dVertex
 10
217.741913
 20
260.65918
 30
0.0
  0
VERTEX
  5
61
100
AcDbEntity
  8
0
370
     0
390
0
100
AcDbVertex
100
AcDb2dVertex
 10
217.741913
 20
261.113098
 30
0.0
  0
VERTEX
  5
62
100
AcDbEntity
  8
0
370
     0
390
0
100
AcDbVertex
100
AcDb2dVertex
 10
216.874481
 20
261.113098
 30
0.0
  0
VERTEX
  5
63
100
AcDbEntity
  8
0
370
     0
390
0
100
AcDbVertex
100
AcDb2dVertex
 10
216.874481
 20
261.612366
 30
0.0
  0
VERTEX
  5
64
100
AcDbEntity
  8
0
370
     0
390
0
100
AcDbVertex
100
AcDb2dVertex
 10
216.471024
 20
261.612366
 30
0.0
  0
VERTEX
  5
65
100
AcDbEntity
  8
0
370
     0
390
0
100
AcDbVertex
100
AcDb2dVertex
 10
216.471024
 20
261.113098
 30
0.0
  0
VERTEX
  5
66
100
AcDbEntity
  8
0
370
     0
390
0
100
AcDbVertex
100
AcDb2dVertex
 10
214.317566
 20
261.113098
 30
0.0
  0
VERTEX
  5
67
100
AcDbEntity
  8
0
370
     0
390
0
100
AcDbVertex
100
AcDb2dVertex
 10
214.317566
 20
260.654144
 30
0.0
  0
VERTEX
  5
68
100
AcDbEntity
  8
0
370
     0
390
0
100
AcDbVertex
100
AcDb2dVertex
 10
216.430679
 20
259.121002
 30
0.0
  0
VERTEX
  5
69
100
AcDbEntity
  8
0
370
     0
390
0
100
AcDbVertex
100
AcDb2dVertex
 10
216.874481
 20
259.121002
 30
0.0
  0
VERTEX
  5
6A
100
AcDbEntity
  8
0
370
     0
390
0
100
AcDbVertex
100
AcDb2dVertex
 10
216.874481
 20
260.65918
 30
0.0
  0
SEQEND
  5
6B
100
AcDbEntity
  8
0
370
     0
390
0
  0
POLYLINE
  5
6C
100
AcDbEntity
  8
0
370
    13
390
0
 62
     7
100
AcDb2dPolyline
 66
     1
 10
0.0
 20
0.0
 30
0.0
 70
     1
 71
     3
  0
VERTEX
  5
6D
100
AcDbEntity
  8
0
370
     0
390
0
100
AcDbVertex
100
AcDb2dVertex
 10
216.471024
 20
259.544647
 30
0.0
  0
VERTEX
  5
6E
100
AcDbEntity
  8
0
370
     0
390
0
100
AcDbVertex
100
AcDb2dVertex
 10
214.902573
 20
260.65918
 30
0.0
  0
VERTEX
  5
6F
100
AcDbEntity
  8
0
370
     0
390
0
100
AcDbVertex
100
AcDb2dVertex
 10
216.471024
 20
260.65918
 30
0.0
  0
SEQEND
  5
70
100
AcDbEntity
  8
0
370
     0
390
0
  0
POLYLINE
  5
71
100
AcDbEntity
  8
0
370
    13
390
0
 62
     7
100
AcDb2dPolyline
 66
     1
 10
0.0
 20
0.0
 30
0.0
 70
     1
 71
     4
  0
VERTEX
  5
72
100
AcDbEntity
  8
0
370
     0
390
0
100
AcDbVertex
100
AcDb2dVertex
 10
217.741913
 20
263.769867
 30
0.0
  0
VERTEX
  5
73
100
AcDbEntity
  8
0
370
     0
390
0
100
AcDbVertex
100
AcDb2dVertex
 10
217.741913
 20
264.46582
 30
0.0
  0
VERTEX
  5
74
100
AcDbEntity
  8
0
370
     0
390
0
100
AcDbVertex
100
AcDb2dVertex
 10
216.990479
 20
264.46582
 30
0.0
  0
VERTEX
  5
75
100
AcDbEntity
  8
0
370
     0
390
0
100
AcDbVertex
100
AcDb2dVertex
 10
216.990479
 20
263.769867
 30
0.0
  0
SEQEND
  5
76
100
AcDbEntity
  8
0
370
     0
390
0
  0
POLYLINE
  5
77
100
AcDbEntity
  8
0
370
    13
390
0
 62
     7
100
AcDb2dPolyline
 66
     1
 10
0.0
 20
0.0
 30
0.0
 70
     1
 71
    35
  0
VERTEX
  5
78
100
AcDbEntity
  8
0
370
     0
390
0
100
AcDbVertex
100
AcDb2dVertex
 10
215.184998
 20
269.06424
 30
0.0
  0
VERTEX
  5
79
100
AcDbEntity
  8
0
370
     0
390
0
100
AcDbVertex
100
AcDb2dVertex
 10
214.776505
 20
268.968414
 30
0.0
  0
VERTEX
  5
7A
100
AcDbEntity
  8
0
370
     0
390
0
100
AcDbVertex
100
AcDb2dVertex
 10
214.473907
 20
268.746521
 30
0.0
  0
VERTEX
  5
7B
100
AcDbEntity
  8
0
370
     0
390
0
100
AcDbVertex
100
AcDb2dVertex
 10
214.282257
 20
268.403564
 30
0.0
  0
VERTEX
  5
7C
100
AcDbEntity
  8
0
370
     0
390
0
100
AcDbVertex
100
AcDb2dVertex
 10
214.216705
 20
267.959778
 30
0.0
  0
VERTEX
  5
7D
100
AcDbEntity
  8
0
370
     0
390
0
100
AcDbVertex
100
AcDb2dVertex
 10
214.251999
 20
267.662231
 30
0.0
  0
VERTEX
  5
7E
100
AcDbEntity
  8
0
370
     0
390
0
100
AcDbVertex
100
AcDb2dVertex
 10
214.347824
 20
267.405029
 30
0.0
  0
VERTEX
  5
7F
100
AcDbEntity
  8
0
370
     0
390
0
100
AcDbVertex
100
AcDb2dVertex
 10
214.504166
 20
267.17807
 30
0.0
  0
VERTEX
  5
80
100
AcDbEntity
  8
0
370
     0
390
0
100
AcDbVertex
100
AcDb2dVertex
 10
214.726074
 20
266.98642
 30
0.0
  0
VERTEX
  5
81
100
AcDbEntity
  8
0
370
     0
390
0
100
AcDbVertex
100
AcDb2dVertex
 10
215.003448
 20
266.835144
 30
0.0
  0
VERTEX
  5
82
100
AcDbEntity
  8
0
370
     0
390
0
100
AcDbVertex
100
AcDb2dVertex
 10
215.341339
 20
266.724182
 30
0.0
  0
VERTEX
  5
83
100
AcDbEntity
  8
0
370
     0
390
0
100
AcDbVertex
100
AcDb2dVertex
 10
215.739761
 20
266.653564
 30
0.0
  0
VERTEX
  5
84
100
AcDbEntity
  8
0
370
     0
390
0
100
AcDbVertex
100
AcDb2dVertex
 10
216.188599
 20
266.633392
 30
0.0
  0
VERTEX
  5
85
100
AcDbEntity
  8
0
370
     0
390
0
100
AcDbVertex
100
AcDb2dVertex
 10
216.904739
 20
266.714081
 30
0.0
  0
VERTEX
  5
86
100
AcDbEntity
  8
0
370
     0
390
0
100
AcDbVertex
100
AcDb2dVertex
 10
217.424194
 20
266.961212
 30
0.0
  0
VERTEX
  5
87
100
AcDbEntity
  8
0
370
     0
390
0
100
AcDbVertex
100
AcDb2dVertex
 10
217.736877
 20
267.359619
 30
0.0
  0
VERTEX
  5
88
100
AcDbEntity
  8
0
370
     0
390
0
100
AcDbVertex
100
AcDb2dVertex
 10
217.842773
 20
267.904297
 30
0.0
  0
VERTEX
  5
89
100
AcDbEntity
  8
0
370
     0
390
0
100
AcDbVertex
100
AcDb2dVertex
 10
217.751999
 20
268.393494
 30
0.0
  0
VERTEX
  5
8A
100
AcDbEntity
  8
0
370
     0
390
0
100
AcDbVertex
100
AcDb2dVertex
 10
217.514969
 20
268.766693
 30
0.0
  0
VERTEX
  5
8B
100
AcDbEntity
  8
0
370
     0
390
0
100
AcDbVertex
100
AcDb2dVertex
 10
217.141769
 20
269.008759
 30
0.0
  0
VERTEX
  5
8C
100
AcDbEntity
  8
0
370
     0
390
0
100
AcDbVertex
100
AcDb2dVertex
 10
216.667709
 20
269.094482
 30
0.0
  0
VERTEX
  5
8D
100
AcDbEntity
  8
0
370
     0
390
0
100
AcDbVertex
100
AcDb2dVertex
 10
216.188599
 20
269.008759
 30
0.0
  0
VERTEX
  5
8E
100
AcDbEntity
  8
0
370
     0
390
0
100
AcDbVertex
100
AcDb2dVertex
 10
215.82045
 20
268.776764
 30
0.0
  0
VERTEX
  5
8F
100
AcDbEntity
  8
0
370
     0
390
0
100
AcDbVertex
100
AcDb2dVertex
 10
215.588455
 20
268.418701
 30
0.0
  0
VERTEX
  5
90
100
AcDbEntity
  8
0
370
     0
390
0
100
AcDbVertex
100
AcDb2dVertex
 10
215.507767
 20
267.974915
 30
0.0
  0
VERTEX
  5
91
100
AcDbEntity
  8
0
370
     0
390
0
100
AcDbVertex
100
AcDb2dVertex
 10
215.608627
 20
267.495789
 30
0.0
  0
VERTEX
  5
92
100
AcDbEntity
  8
0
370
     0
390
0
100
AcDbVertex
100
AcDb2dVertex
 10
215.896088
 20
267.137726
 30
0.0
  0
VERTEX
  5
93
100
AcDbEntity
  8
0
370
     0
390
0
100
AcDbVertex
100
AcDb2dVertex
 10
215.341339
 20
267.213379
 30
0.0
  0
VERTEX
  5
94
100
AcDbEntity
  8
0
370
     0
390
0
100
AcDbVertex
100
AcDb2dVertex
 10
214.942932
 20
267.374756
 30
0.0
  0
VERTEX
  5
95
100
AcDbEntity
  8
0
370
     0
390
0
100
AcDbVertex
100
AcDb2dVertex
 10
214.705887
 20
267.621887
 30
0.0
  0
VERTEX
  5
96
100
AcDbEntity
  8
0
370
     0
390
0
100
AcDbVertex
100
AcDb2dVertex
 10
214.625198
 20
267.964813
 30
0.0
  0
VERTEX
  5
97
100
AcDbEntity
  8
0
370
     0
390
0
100
AcDbVertex
100
AcDb2dVertex
 10
214.665543
 20
268.21698
 30
0.0
  0
VERTEX
  5
98
100
AcDbEntity
  8
0
370
     0
390
0
100
AcDbVertex
100
AcDb2dVertex
 10
214.771454
 20
268.40863
 30
0.0
  0
VERTEX
  5
99
100
AcDbEntity
  8
0
370
     0
390
0
100
AcDbVertex
100
AcDb2dVertex
 10
214.947968
 20
268.534698
 30
0.0
  0
VERTEX
  5
9A
100
AcDbEntity
  8
0
370
     0
390
0
100
AcDbVertex
100
AcDb2dVertex
 10
215.184998
 20
268.60025
 30
0.0
  0
SEQEND
  5
9B
100
AcDbEntity
  8
0
370
     0
390
0
  0
POLYLINE
  5
9C
100
AcDbEntity
  8
0
370
    13
390
0
 62
     7
100
AcDb2dPolyline
 66
     1
 10
0.0
 20
0.0
 30
0.0
 70
     1
 71
    16
  0
VERTEX
  5
9D
100
AcDbEntity
  8
0
370
     0
390
0
100
AcDbVertex
100
AcDb2dVertex
 10
216.67276
 20
268.605316
 30
0.0
  0
VERTEX
  5
9E
100
AcDbEntity
  8
0
370
     0
390
0
100
AcDbVertex
100
AcDb2dVertex
 10
216.990479
 20
268.549835
 30
0.0
  0
VERTEX
  5
9F
100
AcDbEntity
  8
0
370
     0
390
0
100
AcDbVertex
100
AcDb2dVertex
 10
217.232544
 20
268.40863
 30
0.0
  0
VERTEX
  5
A0
100
AcDbEntity
  8
0
370
     0
390
0
100
AcDbVertex
100
AcDb2dVertex
 10
217.393936
 20
268.181671
 30
0.0
  0
VERTEX
  5
A1
100
AcDbEntity
  8
0
370
     0
390
0
100
AcDbVertex
100
AcDb2dVertex
 10
217.444366
 20
267.899261
 30
0.0
  0
VERTEX
  5
A2
100
AcDbEntity
  8
0
370
     0
390
0
100
AcDbVertex
100
AcDb2dVertex
 10
217.393936
 20
267.601715
 30
0.0
  0
VERTEX
  5
A3
100
AcDbEntity
  8
0
370
     0
390
0
100
AcDbVertex
100
AcDb2dVertex
 10
217.237595
 20
267.374756
 30
0.0
  0
VERTEX
  5
A4
100
AcDbEntity
  8
0
370
     0
390
0
100
AcDbVertex
100
AcDb2dVertex
 10
216.995514
 20
267.228516
 30
0.0
  0
VERTEX
  5
A5
100
AcDbEntity
  8
0
370
     0
390
0
100
AcDbVertex
100
AcDb2dVertex
 10
216.677795
 20
267.183105
 30
0.0
  0
VERTEX
  5
A6
100
AcDbEntity
  8
0
370
     0
390
0
100
AcDbVertex
100
AcDb2dVertex
 10
216.365112
 20
267.233551
 30
0.0
  0
VERTEX
  5
A7
100
AcDbEntity
  8
0
370
     0
390
0
100
AcDbVertex
100
AcDb2dVertex
 10
216.128082
 20
267.374756
 30
0.0
  0
VERTEX
  5
A8
100
AcDbEntity
  8
0
370
     0
390
0
100
AcDbVertex
100
AcDb2dVertex
 10
215.976791
 20
267.60675
 30
0.0
  0
VERTEX
  5
A9
100
AcDbEntity
  8
0
370
     0
390
0
100
AcDbVertex
100
AcDb2dVertex
 10
215.92131
 20
267.919434
 30
0.0
  0
VERTEX
  5
AA
100
AcDbEntity
  8
0
370
     0
390
0
100
AcDbVertex
100
AcDb2dVertex
 10
215.976791
 20
268.191772
 30
0.0
  0
VERTEX
  5
AB
100
AcDbEntity
  8
0
370
     0
390
0
100
AcDbVertex
100
AcDb2dVertex
 10
216.123047
 20
268.40863
 30
0.0
  0
VERTEX
  5
AC
100
AcDbEntity
  8
0
370
     0
390
0
100
AcDbVertex
100
AcDb2dVertex
 10
216.360077
 20
268.549835
 30
0.0
  0
SEQEND
  5
AD
100
AcDbEntity
  8
0
370
     0
390
0
  0
POLYLINE
  5
AE
100
AcDbEntity
  8
0
370
    13
390
0
 62
     7
100
AcDb2dPolyline
 66
     1
 10
0.0
 20
0.0
 30
0.0
 70
     1
 71
    35
  0
VERTEX
  5
AF
100
AcDbEntity
  8
0
370
     0
390
0
100
AcDbVertex
100
AcDb2dVertex
 10
215.184998
 20
272.800262
 30
0.0
  0
VERTEX
  5
B0
100
AcDbEntity
  8
0
370
     0
390
0
100
AcDbVertex
100
AcDb2dVertex
 10
214.776505
 20
272.704437
 30
0.0
  0
VERTEX
  5
B1
100
AcDbEntity
  8
0
370
     0
390
0
100
AcDbVertex
100
AcDb2dVertex
 10
214.473907
 20
272.482544
 30
0.0
  0
VERTEX
  5
B2
100
AcDbEntity
  8
0
370
     0
390
0
100
AcDbVertex
100
AcDb2dVertex
 10
214.282257
 20
272.139587
 30
0.0
  0
VERTEX
  5
B3
100
AcDbEntity
  8
0
370
     0
390
0
100
AcDbVertex
100
AcDb2dVertex
 10
214.216705
 20
271.695801
 30
0.0
  0
VERTEX
  5
B4
100
AcDbEntity
  8
0
370
     0
390
0
100
AcDbVertex
100
AcDb2dVertex
 10
214.251999
 20
271.398254
 30
0.0
  0
VERTEX
  5
B5
100
AcDbEntity
  8
0
370
     0
390
0
100
AcDbVertex
100
AcDb2dVertex
 10
214.347824
 20
271.141052
 30
0.0
  0
VERTEX
  5
B6
100
AcDbEntity
  8
0
370
     0
390
0
100
AcDbVertex
100
AcDb2dVertex
 10
214.504166
 20
270.914093
 30
0.0
  0
VERTEX
  5
B7
100
AcDbEntity
  8
0
370
     0
390
0
100
AcDbVertex
100
AcDb2dVertex
 10
214.726074
 20
270.722443
 30
0.0
  0
VERTEX
  5
B8
100
AcDbEntity
  8
0
370
     0
390
0
100
AcDbVertex
100
AcDb2dVertex
 10
215.003448
 20
270.571167
 30
0.0
  0
VERTEX
  5
B9
100
AcDbEntity
  8
0
370
     0
390
0
100
AcDbVertex
100
AcDb2dVertex
 10
215.341339
 20
270.460205
 30
0.0
  0
VERTEX
  5
BA
100
AcDbEntity
  8
0
370
     0
390
0
100
AcDbVertex
100
AcDb2dVertex
 10
215.739761
 20
270.389587
 30
0.0
  0
VERTEX
  5
BB
100
AcDbEntity
  8
0
370
     0
390
0
100
AcDbVertex
100
AcDb2dVertex
 10
216.188599
 20
270.369415
 30
0.0
  0
VERTEX
  5
BC
100
AcDbEntity
  8
0
370
     0
390
0
100
AcDbVertex
100
AcDb2dVertex
 10
216.904739
 20
270.450104
 30
0.0
  0
VERTEX
  5
BD
100
AcDbEntity
  8
0
370
     0
390
0
100
AcDbVertex
100
AcDb2dVertex
 10
217.424194
 20
270.697235
 30
0.0
  0
VERTEX
  5
BE
100
AcDbEntity
  8
0
370
     0
390
0
100
AcDbVertex
100
AcDb2dVertex
 10
217.736877
 20
271.095642
 30
0.0
  0
VERTEX
  5
BF
100
AcDbEntity
  8
0
370
     0
390
0
100
AcDbVertex
100
AcDb2dVertex
 10
217.842773
 20
271.64032
 30
0.0
  0
VERTEX
  5
C0
100
AcDbEntity
  8
0
370
     0
390
0
100
AcDbVertex
100
AcDb2dVertex
 10
217.751999
 20
272.129517
 30
0.0
  0
VERTEX
  5
C1
100
AcDbEntity
  8
0
370
     0
390
0
100
AcDbVertex
100
AcDb2dVertex
 10
217.514969
 20
272.502716
 30
0.0
  0
VERTEX
  5
C2
100
AcDbEntity
  8
0
370
     0
390
0
100
AcDbVertex
100
AcDb2dVertex
 10
217.141769
 20
272.744781
 30
0.0
  0
VERTEX
  5
C3
100
AcDbEntity
  8
0
370
     0
390
0
100
AcDbVertex
100
AcDb2dVertex
 10
216.667709
 20
272.830505
 30
0.0
  0
VERTEX
  5
C4
100
AcDbEntity
  8
0
370
     0
390
0
100
AcDbVertex
100
AcDb2dVertex
 10
216.188599
 20
272.744781
 30
0.0
  0
VERTEX
  5
C5
100
AcDbEntity
  8
0
370
     0
390
0
100
AcDbVertex
100
AcDb2dVertex
 10
215.82045
 20
272.512787
 30
0.0
  0
VERTEX
  5
C6
100
AcDbEntity
  8
0
370
     0
390
0
100
AcDbVertex
100
AcDb2dVertex
 10
215.588455
 20
272.154724
 30
0.0
  0
VERTEX
  5
C7
100
AcDbEntity
  8
0
370
     0
390
0
100
AcDbVertex
100
AcDb2dVertex
 10
215.507767
 20
271.710938
 30
0.0
  0
VERTEX
  5
C8
100
AcDbEntity
  8
0
370
     0
390
0
100
AcDbVertex
100
AcDb2dVertex
 10
215.608627
 20
271.231812
 30
0.0
  0
VERTEX
  5
C9
100
AcDbEntity
  8
0
370
     0
390
0
100
AcDbVertex
100
AcDb2dVertex
 10
215.896088
 20
270.873749
 30
0.0
  0
VERTEX
  5
CA
100
AcDbEntity
  8
0
370
     0
390
0
100
AcDbVertex
100
AcDb2dVertex
 10
215.341339
 20
270.949402
 30
0.0
  0
VERTEX
  5
CB
100
AcDbEntity
  8
0
370
     0
390
0
100
AcDbVertex
100
AcDb2dVertex
 10
214.942932
 20
271.110779
 30
0.0
  0
VERTEX
  5
CC
100
AcDbEntity
  8
0
370
     0
390
0
100
AcDbVertex
100
AcDb2dVertex
 10
214.705887
 20
271.35791
 30
0.0
  0
VERTEX
  5
CD
100
AcDbEntity
  8
0
370
     0
390
0
100
AcDbVertex
100
AcDb2dVertex
 10
214.625198
 20
271.700836
 30
0.0
  0
VERTEX
  5
CE
100
AcDbEntity
  8
0
370
     0
390
0
100
AcDbVertex
100
AcDb2dVertex
 10
214.665543
 20
271.953003
 30
0.0
  0
VERTEX
  5
CF
100
AcDbEntity
  8
0
370
     0
390
0
100
AcDbVertex
100
AcDb2dVertex
 10
214.771454
 20
272.144653
 30
0.0
  0
VERTEX
  5
D0
100
AcDbEntity
  8
0
370
     0
390
0
100
AcDbVertex
100
AcDb2dVertex
 10
214.947968
 20
272.270721
 30
0.0
  0
VERTEX
  5
D1
100
AcDbEntity
  8
0
370
     0
390
0
100
AcDbVertex
100
AcDb2dVertex
 10
215.184998
 20
272.336273
 30
0.0
  0
SEQEND
  5
D2
100
AcDbEntity
  8
0
370
     0
390
0
  0
POLYLINE
  5
D3
100
AcDbEntity
  8
0
370
    13
390
0
 62
     7
100
AcDb2dPolyline
 66
     1
 10
0.0
 20
0.0
 30
0.0
 70
     1
 71
    16
  0
VERTEX
  5
D4
100
AcDbEntity
  8
0
370
     0
390
0
100
AcDbVertex
100
AcDb2dVertex
 10
216.67276
 20
272.341339
 30
0.0
  0
VERTEX
  5
D5
100
AcDbEntity
  8
0
370
     0
390
0
100
AcDbVertex
100
AcDb2dVertex
 10
216.990479
 20
272.285858
 30
0.0
  0
VERTEX
  5
D6
100
AcDbEntity
  8
0
370
     0
390
0
100
AcDbVertex
100
AcDb2dVertex
 10
217.232544
 20
272.144653
 30
0.0
  0
VERTEX
  5
D7
100
AcDbEntity
  8
0
370
     0
390
0
100
AcDbVertex
100
AcDb2dVertex
 10
217.393936
 20
271.917694
 30
0.0
  0
VERTEX
  5
D8
100
AcDbEntity
  8
0
370
     0
390
0
100
AcDbVertex
100
AcDb2dVertex
 10
217.444366
 20
271.635284
 30
0.0
  0
VERTEX
  5
D9
100
AcDbEntity
  8
0
370
     0
390
0
100
AcDbVertex
100
AcDb2dVertex
 10
217.393936
 20
271.337738
 30
0.0
  0
VERTEX
  5
DA
100
AcDbEntity
  8
0
370
     0
390
0
100
AcDbVertex
100
AcDb2dVertex
 10
217.237595
 20
271.110779
 30
0.0
  0
VERTEX
  5
DB
100
AcDbEntity
  8
0
370
     0
390
0
100
AcDbVertex
100
AcDb2dVertex
 10
216.995514
 20
270.964539
 30
0.0
  0
VERTEX
  5
DC
100
AcDbEntity
  8
0
370
     0
390
0
100
AcDbVertex
100
AcDb2dVertex
 10
216.677795
 20
270.919128
 30
0.0
  0
VERTEX
  5
DD
100
AcDbEntity
  8
0
370
     0
390
0
100
AcDbVertex
100
AcDb2dVertex
 10
216.365112
 20
270.969574
 30
0.0
  0
VERTEX
  5
DE
100
AcDbEntity
  8
0
370
     0
390
0
100
AcDbVertex
100
AcDb2dVertex
 10
216.128082
 20
271.110779
 30
0.0
  0
VERTEX
  5
DF
100
AcDbEntity
  8
0
370
     0
390
0
100
AcDbVertex
100
AcDb2dVertex
 10
215.976791
 20
271.342773
 30
0.0
  0
VERTEX
  5
E0
100
AcDbEntity
  8
0
370
     0
390
0
100
AcDbVertex
100
AcDb2dVertex
 10
215.92131
 20
271.655457
 30
0.0
  0
VERTEX
  5
E1
100
AcDbEntity
  8
0
370
     0
390
0
100
AcDbVertex
100
AcDb2dVertex
 10
215.976791
 20
271.927795
 30
0.0
  0
VERTEX
  5
E2
100
AcDbEntity
  8
0
370
     0
390
0
100
AcDbVertex
100
AcDb2dVertex
 10
216.123047
 20
272.144653
 30
0.0
  0
VERTEX
  5
E3
100
AcDbEntity
  8
0
370
     0
390
0
100
AcDbVertex
100
AcDb2dVertex
 10
216.360077
 20
272.285858
 30
0.0
  0
SEQEND
  5
E4
100
AcDbEntity
  8
0
370
     0
390
0
  0
LINE
  5
E5
100
AcDbEntity
  8
0
370
    13
390
0
 62
     7
100
AcDbLine
 10
194.77272
 20
246.786301
 30
0.0
 11
221.741913
 21
246.786301
 31
0.0
210
0.0
220
0.0
230
1.0
  0
LINE
  5
E6
100
AcDbEntity
  8
0
370
    13
390
0
 62
     7
100
AcDbLine
 10
194.77272
 20
281.449371
 30
0.0
 11
221.741913
 21
281.449371
 31
0.0
210
0.0
220
0.0
230
1.0
  0
POLYLINE
  5
E7
100
AcDbEntity
  8
0
370
    13
390
0
 62
     7
100
AcDb2dPolyline
 66
     1
 10
0.0
 20
0.0
 30
0.0
 71
     3
  0
VERTEX
  5
E8
100
AcDbEntity
  8
0
370
     0
390
0
100
AcDbVertex
100
AcDb2dVertex
 10
220.259552
 20
279.517517
 30
0.0
  0
VERTEX
  5
E9
100
AcDbEntity
  8
0
370
     0
390
0
100
AcDbVertex
100
AcDb2dVertex
 10
219.741913
 20
281.449371
 30
0.0
  0
VERTEX
  5
EA
100
AcDbEntity
  8
0
370
     0
390
0
100
AcDbVertex
100
AcDb2dVertex
 10
219.224274
 20
279.517517
 30
0.0
  0
SEQEND
  5
EB
100
AcDbEntity
  8
0
370
     0
390
0
  0
POLYLINE
  5
EC
100
AcDbEntity
  8
0
370
    13
390
0
 62
     7
100
AcDb2dPolyline
 66
     1
 10
0.0
 20
0.0
 30
0.0
 71
     3
  0
VERTEX
  5
ED
100
AcDbEntity
  8
0
370
     0
390
0
100
AcDbVertex
100
AcDb2dVertex
 10
219.224274
 20
248.718155
 30
0.0
  0
VERTEX
  5
EE
100
AcDbEntity
  8
0
370
     0
390
0
100
AcDbVertex
100
AcDb2dVertex
 10
219.741913
 20
246.786301
 30
0.0
  0
VERTEX
  5
EF
100
AcDbEntity
  8
0
370
     0
390
0
100
AcDbVertex
100
AcDb2dVertex
 10
220.259552
 20
248.718155
 30
0.0
  0
SEQEND
  5
F0
100
AcDbEntity
  8
0
370
     0
390
0
  0
LINE
  5
F1
100
AcDbEntity
  8
0
370
    13
390
0
 62
     7
100
AcDbLine
 10
219.741913
 20
246.786301
 30
0.0
 11
219.741913
 21
281.449371
 31
0.0
210
0.0
220
0.0
230
1.0
  0
POLYLINE
  5
F2
100
AcDbEntity
  8
0
370
    13
390
0
 62
     7
100
AcDb2dPolyline
 66
     1
 10
0.0
 20
0.0
 30
0.0
 70
     1
 71
    53
  0
VERTEX
  5
F3
100
AcDbEntity
  8
0
370
     0
390
0
100
AcDbVertex
100
AcDb2dVertex
 10
207.197449
 20
258.6474
 30
0.0
  0
VERTEX
  5
F4
100
AcDbEntity
  8
0
370
     0
390
0
100
AcDbVertex
100
AcDb2dVertex
 10
207.232758
 20
258.6474
 30
0.0
  0
VERTEX
  5
F5
100
AcDbEntity
  8
0
370
     0
390
0
100
AcDbVertex
100
AcDb2dVertex
 10
207.716904
 20
258.728088
 30
0.0
  0
VERTEX
  5
F6
100
AcDbEntity
  8
0
370
     0
390
0
100
AcDbVertex
100
AcDb2dVertex
 10
208.080017
 20
258.965118
 30
0.0
  0
VERTEX
  5
F7
100
AcDbEntity
  8
0
370
     0
390
0
100
AcDbVertex
100
AcDb2dVertex
 10
208.312012
 20
259.338318
 30
0.0
  0
VERTEX
  5
F8
100
AcDbEntity
  8
0
370
     0
390
0
100
AcDbVertex
100
AcDb2dVertex
 10
208.397736
 20
259.83255
 30
0.0
  0
VERTEX
  5
F9
100
AcDbEntity
  8
0
370
     0
390
0
100
AcDbVertex
100
AcDb2dVertex
 10
208.312012
 20
260.357056
 30
0.0
  0
VERTEX
  5
FA
100
AcDbEntity
  8
0
370
     0
390
0
100
AcDbVertex
100
AcDb2dVertex
 10
208.090103
 20
260.750427
 30
0.0
  0
VERTEX
  5
FB
100
AcDbEntity
  8
0
370
     0
390
0
100
AcDbVertex
100
AcDb2dVertex
 10
207.737076
 20
261.002594
 30
0.0
  0
VERTEX
  5
FC
100
AcDbEntity
  8
0
370
     0
390
0
100
AcDbVertex
100
AcDb2dVertex
 10
207.283188
 20
261.093353
 30
0.0
  0
VERTEX
  5
FD
100
AcDbEntity
  8
0
370
     0
390
0
100
AcDbVertex
100
AcDb2dVertex
 10
206.985641
 20
261.053009
 30
0.0
  0
VERTEX
  5
FE
100
AcDbEntity
  8
0
370
     0
390
0
100
AcDbVertex
100
AcDb2dVertex
 10
206.743561
 20
260.942078
 30
0.0
  0
VERTEX
  5
FF
100
AcDbEntity
  8
0
370
     0
390
0
100
AcDbVertex
100
AcDb2dVertex
 10
206.556961
 20
260.760498
 30
0.0
  0
VERTEX
  5
100
100
AcDbEntity
  8
0
370
     0
390
0
100
AcDbVertex
100
AcDb2dVertex
 10
206.420792
 20
260.518433
 30
0.0
  0
VERTEX
  5
101
100
AcDbEntity
  8
0
370
     0
390
0
100
AcDbVertex
100
AcDb2dVertex
 10
206.148468
 20
260.846252
 30
0.0
  0
VERTEX
  5
102
100
AcDbEntity
  8
0
370
     0
390
0
100
AcDbVertex
100
AcDb2dVertex
 10
205.714752
 20
260.96225
 30
0.0
  0
VERTEX
  5
103
100
AcDbEntity
  8
0
370
     0
390
0
100
AcDbVertex
100
AcDb2dVertex
 10
205.321381
 20
260.886597
 30
0.0
  0
VERTEX
  5
104
100
AcDbEntity
  8
0
370
     0
390
0
100
AcDbVertex
100
AcDb2dVertex
 10
205.023819
 20
260.669739
 30
0.0
  0
VERTEX
  5
105
100
AcDbEntity
  8
0
370
     0
390
0
100
AcDbVertex
100
AcDb2dVertex
 10
204.837219
 20
260.316711
 30
0.0
  0
VERTEX
  5
106
100
AcDbEntity
  8
0
370
     0
390
0
100
AcDbVertex
100
AcDb2dVertex
 10
204.771667
 20
259.83255
 30
0.0
  0
VERTEX
  5
107
100
AcDbEntity
  8
0
370
     0
390
0
100
AcDbVertex
100
AcDb2dVertex
 10
204.852356
 20
259.378662
 30
0.0
  0
VERTEX
  5
108
100
AcDbEntity
  8
0
370
     0
390
0
100
AcDbVertex
100
AcDb2dVertex
 10
205.074249
 20
259.03067
 30
0.0
  0
VERTEX
  5
109
100
AcDbEntity
  8
0
370
     0
390
0
100
AcDbVertex
100
AcDb2dVertex
 10
205.427277
 20
258.803741
 30
0.0
  0
VERTEX
  5
10A
100
AcDbEntity
  8
0
370
     0
390
0
100
AcDbVertex
100
AcDb2dVertex
 10
205.896301
 20
258.728088
 30
0.0
  0
VERTEX
  5
10B
100
AcDbEntity
  8
0
370
     0
390
0
100
AcDbVertex
100
AcDb2dVertex
 10
205.93161
 20
258.728088
 30
0.0
  0
VERTEX
  5
10C
100
AcDbEntity
  8
0
370
     0
390
0
100
AcDbVertex
100
AcDb2dVertex
 10
205.93161
 20
259.176941
 30
0.0
  0
VERTEX
  5
10D
100
AcDbEntity
  8
0
370
     0
390
0
100
AcDbVertex
100
AcDb2dVertex
 10
205.608841
 20
259.217285
 30
0.0
  0
VERTEX
  5
10E
100
AcDbEntity
  8
0
370
     0
390
0
100
AcDbVertex
100
AcDb2dVertex
 10
205.376846
 20
259.348419
 30
0.0
  0
VERTEX
  5
10F
100
AcDbEntity
  8
0
370
     0
390
0
100
AcDbVertex
100
AcDb2dVertex
 10
205.235641
 20
259.560211
 30
0.0
  0
VERTEX
  5
110
100
AcDbEntity
  8
0
370
     0
390
0
100
AcDbVertex
100
AcDb2dVertex
 10
205.185211
 20
259.857758
 30
0.0
  0
VERTEX
  5
111
100
AcDbEntity
  8
0
370
     0
390
0
100
AcDbVertex
100
AcDb2dVertex
 10
205.225555
 20
260.120026
 30
0.0
  0
VERTEX
  5
112
100
AcDbEntity
  8
0
370
     0
390
0
100
AcDbVertex
100
AcDb2dVertex
 10
205.331467
 20
260.311676
 30
0.0
  0
VERTEX
  5
113
100
AcDbEntity
  8
0
370
     0
390
0
100
AcDbVertex
100
AcDb2dVertex
 10
205.50293
 20
260.427643
 30
0.0
  0
VERTEX
  5
114
100
AcDbEntity
  8
0
370
     0
390
0
100
AcDbVertex
100
AcDb2dVertex
 10
205.734924
 20
260.473053
 30
0.0
  0
VERTEX
  5
115
100
AcDbEntity
  8
0
370
     0
390
0
100
AcDbVertex
100
AcDb2dVertex
 10
205.98204
 20
260.427643
 30
0.0
  0
VERTEX
  5
116
100
AcDbEntity
  8
0
370
     0
390
0
100
AcDbVertex
100
AcDb2dVertex
 10
206.148468
 20
260.30661
 30
0.0
  0
VERTEX
  5
117
100
AcDbEntity
  8
0
370
     0
390
0
100
AcDbVertex
100
AcDb2dVertex
 10
206.249329
 20
260.094788
 30
0.0
  0
VERTEX
  5
118
100
AcDbEntity
  8
0
370
     0
390
0
100
AcDbVertex
100
AcDb2dVertex
 10
206.279587
 20
259.807343
 30
0.0
  0
VERTEX
  5
119
100
AcDbEntity
  8
0
370
     0
390
0
100
AcDbVertex
100
AcDb2dVertex
 10
206.274551
 20
259.610657
 30
0.0
  0
VERTEX
  5
11A
100
AcDbEntity
  8
0
370
     0
390
0
100
AcDbVertex
100
AcDb2dVertex
 10
206.672958
 20
259.610657
 30
0.0
  0
VERTEX
  5
11B
100
AcDbEntity
  8
0
370
     0
390
0
100
AcDbVertex
100
AcDb2dVertex
 10
206.662872
 20
259.857758
 30
0.0
  0
VERTEX
  5
11C
100
AcDbEntity
  8
0
370
     0
390
0
100
AcDbVertex
100
AcDb2dVertex
 10
206.708267
 20
260.175507
 30
0.0
  0
VERTEX
  5
11D
100
AcDbEntity
  8
0
370
     0
390
0
100
AcDbVertex
100
AcDb2dVertex
 10
206.8293
 20
260.412537
 30
0.0
  0
VERTEX
  5
11E
100
AcDbEntity
  8
0
370
     0
390
0
100
AcDbVertex
100
AcDb2dVertex
 10
207.025986
 20
260.553741
 30
0.0
  0
VERTEX
  5
11F
100
AcDbEntity
  8
0
370
     0
390
0
100
AcDbVertex
100
AcDb2dVertex
 10
207.283188
 20
260.604156
 30
0.0
  0
VERTEX
  5
120
100
AcDbEntity
  8
0
370
     0
390
0
100
AcDbVertex
100
AcDb2dVertex
 10
207.575699
 20
260.548706
 30
0.0
  0
VERTEX
  5
121
100
AcDbEntity
  8
0
370
     0
390
0
100
AcDbVertex
100
AcDb2dVertex
 10
207.792557
 20
260.402435
 30
0.0
  0
VERTEX
  5
122
100
AcDbEntity
  8
0
370
     0
390
0
100
AcDbVertex
100
AcDb2dVertex
 10
207.928726
 20
260.170441
 30
0.0
  0
VERTEX
  5
123
100
AcDbEntity
  8
0
370
     0
390
0
100
AcDbVertex
100
AcDb2dVertex
 10
207.974106
 20
259.862823
 30
0.0
  0
VERTEX
  5
124
100
AcDbEntity
  8
0
370
     0
390
0
100
AcDbVertex
100
AcDb2dVertex
 10
207.923676
 20
259.545105
 30
0.0
  0
VERTEX
  5
125
100
AcDbEntity
  8
0
370
     0
390
0
100
AcDbVertex
100
AcDb2dVertex
 10
207.772385
 20
259.31311
 30
0.0
  0
VERTEX
  5
126
100
AcDbEntity
  8
0
370
     0
390
0
100
AcDbVertex
100
AcDb2dVertex
 10
207.530304
 20
259.16684
 30
0.0
  0
VERTEX
  5
127
100
AcDbEntity
  8
0
370
     0
390
0
100
AcDbVertex
100
AcDb2dVertex
 10
207.197449
 20
259.111359
 30
0.0
  0
SEQEND
  5
128
100
AcDbEntity
  8
0
370
     0
390
0
  0
POLYLINE
  5
129
100
AcDbEntity
  8
0
370
    13
390
0
 62
     7
100
AcDb2dPolyline
 66
     1
 10
0.0
 20
0.0
 30
0.0
 70
     1
 71
    17
  0
VERTEX
  5
12A
100
AcDbEntity
  8
0
370
     0
390
0
100
AcDbVertex
100
AcDb2dVertex
 10
206.587219
 20
262.438904
 30
0.0
  0
VERTEX
  5
12B
100
AcDbEntity
  8
0
370
     0
390
0
100
AcDbVertex
100
AcDb2dVertex
 10
207.379013
 20
262.514557
 30
0.0
  0
VERTEX
  5
12C
100
AcDbEntity
  8
0
370
     0
390
0
100
AcDbVertex
100
AcDb2dVertex
 10
207.943848
 20
262.751587
 30
0.0
  0
VERTEX
  5
12D
100
AcDbEntity
  8
0
370
     0
390
0
100
AcDbVertex
100
AcDb2dVertex
 10
208.286789
 20
263.129822
 30
0.0
  0
VERTEX
  5
12E
100
AcDbEntity
  8
0
370
     0
390
0
100
AcDbVertex
100
AcDb2dVertex
 10
208.397736
 20
263.654297
 30
0.0
  0
VERTEX
  5
12F
100
AcDbEntity
  8
0
370
     0
390
0
100
AcDbVertex
100
AcDb2dVertex
 10
208.286789
 20
264.173767
 30
0.0
  0
VERTEX
  5
130
100
AcDbEntity
  8
0
370
     0
390
0
100
AcDbVertex
100
AcDb2dVertex
 10
207.943848
 20
264.552002
 30
0.0
  0
VERTEX
  5
131
100
AcDbEntity
  8
0
370
     0
390
0
100
AcDbVertex
100
AcDb2dVertex
 10
207.379013
 20
264.783997
 30
0.0
  0
VERTEX
  5
132
100
AcDbEntity
  8
0
370
     0
390
0
100
AcDbVertex
100
AcDb2dVertex
 10
206.587219
 20
264.864685
 30
0.0
  0
VERTEX
  5
133
100
AcDbEntity
  8
0
370
     0
390
0
100
AcDbVertex
100
AcDb2dVertex
 10
205.800476
 20
264.783997
 30
0.0
  0
VERTEX
  5
134
100
AcDbEntity
  8
0
370
     0
390
0
100
AcDbVertex
100
AcDb2dVertex
 10
205.487808
 20
264.688171
 30
0.0
  0
VERTEX
  5
135
100
AcDbEntity
  8
0
370
     0
390
0
100
AcDbVertex
100
AcDb2dVertex
 10
205.230591
 20
264.552002
 30
0.0
  0
VERTEX
  5
136
100
AcDbEntity
  8
0
370
     0
390
0
100
AcDbVertex
100
AcDb2dVertex
 10
204.88765
 20
264.173767
 30
0.0
  0
VERTEX
  5
137
100
AcDbEntity
  8
0
370
     0
390
0
100
AcDbVertex
100
AcDb2dVertex
 10
204.771667
 20
263.654297
 30
0.0
  0
VERTEX
  5
138
100
AcDbEntity
  8
0
370
     0
390
0
100
AcDbVertex
100
AcDb2dVertex
 10
204.88765
 20
263.129822
 30
0.0
  0
VERTEX
  5
139
100
AcDbEntity
  8
0
370
     0
390
0
100
AcDbVertex
100
AcDb2dVertex
 10
205.235641
 20
262.751587
 30
0.0
  0
VERTEX
  5
13A
100
AcDbEntity
  8
0
370
     0
390
0
100
AcDbVertex
100
AcDb2dVertex
 10
205.800476
 20
262.514557
 30
0.0
  0
SEQEND
  5
13B
100
AcDbEntity
  8
0
370
     0
390
0
  0
POLYLINE
  5
13C
100
AcDbEntity
  8
0
370
    13
390
0
 62
     7
100
AcDb2dPolyline
 66
     1
 10
0.0
 20
0.0
 30
0.0
 70
     1
 71
    16
  0
VERTEX
  5
13D
100
AcDbEntity
  8
0
370
     0
390
0
100
AcDbVertex
100
AcDb2dVertex
 10
206.587219
 20
262.923035
 30
0.0
  0
VERTEX
  5
13E
100
AcDbEntity
  8
0
370
     0
390
0
100
AcDbVertex
100
AcDb2dVertex
 10
205.97699
 20
262.963379
 30
0.0
  0
VERTEX
  5
13F
100
AcDbEntity
  8
0
370
     0
390
0
100
AcDbVertex
100
AcDb2dVertex
 10
205.538239
 20
263.089478
 30
0.0
  0
VERTEX
  5
140
100
AcDbEntity
  8
0
370
     0
390
0
100
AcDbVertex
100
AcDb2dVertex
 10
205.281036
 20
263.316406
 30
0.0
  0
VERTEX
  5
141
100
AcDbEntity
  8
0
370
     0
390
0
100
AcDbVertex
100
AcDb2dVertex
 10
205.190247
 20
263.654297
 30
0.0
  0
VERTEX
  5
142
100
AcDbEntity
  8
0
370
     0
390
0
100
AcDbVertex
100
AcDb2dVertex
 10
205.281036
 20
263.987152
 30
0.0
  0
VERTEX
  5
143
100
AcDbEntity
  8
0
370
     0
390
0
100
AcDbVertex
100
AcDb2dVertex
 10
205.538239
 20
264.214111
 30
0.0
  0
VERTEX
  5
144
100
AcDbEntity
  8
0
370
     0
390
0
100
AcDbVertex
100
AcDb2dVertex
 10
205.97699
 20
264.340179
 30
0.0
  0
VERTEX
  5
145
100
AcDbEntity
  8
0
370
     0
390
0
100
AcDbVertex
100
AcDb2dVertex
 10
206.587219
 20
264.380524
 30
0.0
  0
VERTEX
  5
146
100
AcDbEntity
  8
0
370
     0
390
0
100
AcDbVertex
100
AcDb2dVertex
 10
207.202499
 20
264.340179
 30
0.0
  0
VERTEX
  5
147
100
AcDbEntity
  8
0
370
     0
390
0
100
AcDbVertex
100
AcDb2dVertex
 10
207.641266
 20
264.214111
 30
0.0
  0
VERTEX
  5
148
100
AcDbEntity
  8
0
370
     0
390
0
100
AcDbVertex
100
AcDb2dVertex
 10
207.898468
 20
263.987152
 30
0.0
  0
VERTEX
  5
149
100
AcDbEntity
  8
0
370
     0
390
0
100
AcDbVertex
100
AcDb2dVertex
 10
207.984192
 20
263.654297
 30
0.0
  0
VERTEX
  5
14A
100
AcDbEntity
  8
0
370
     0
390
0
100
AcDbVertex
100
AcDb2dVertex
 10
207.898468
 20
263.316406
 30
0.0
  0
VERTEX
  5
14B
100
AcDbEntity
  8
0
370
     0
390
0
100
AcDbVertex
100
AcDb2dVertex
 10
207.641266
 20
263.089478
 30
0.0
  0
VERTEX
  5
14C
100
AcDbEntity
  8
0
370
     0
390
0
100
AcDbVertex
100
AcDb2dVertex
 10
207.202499
 20
262.963379
 30
0.0
  0
SEQEND
  5
14D
100
AcDbEntity
  8
0
370
     0
390
0
  0
LINE
  5
14E
100
AcDbEntity
  8
0
370
    13
390
0
 62
     7
 48
0.188104
100
AcDbLine
 10
204.77272
 20
246.786301
 30
0.0
 11
212.296875
 21
246.786301
 31
0.0
210
0.0
220
0.0
230
1.0
  0
LINE
  5
14F
100
AcDbEntity
  8
0
370
    13
390
0
 62
     7
 48
0.188104
100
AcDbLine
 10
204.77272
 20
276.786316
 30
0.0
 11
212.296875
 21
276.786316
 31
0.0
210
0.0
220
0.0
230
1.0
  0
POLYLINE
  5
150
100
AcDbEntity
  8
0
370
    13
390
0
 62
     7
100
AcDb2dPolyline
 66
     1
 10
0.0
 20
0.0
 30
0.0
 71
     3
  0
VERTEX
  5
151
100
AcDbEntity
  8
0
370
     0
390
0
100
AcDbVertex
100
AcDb2dVertex
 10
209.779236
 20
248.718155
 30
0.0
  0
VERTEX
  5
152
100
AcDbEntity
  8
0
370
     0
390
0
100
AcDbVertex
100
AcDb2dVertex
 10
210.296875
 20
246.786301
 30
0.0
  0
VERTEX
  5
153
100
AcDbEntity
  8
0
370
     0
390
0
100
AcDbVertex
100
AcDb2dVertex
 10
210.814514
 20
248.718155
 30
0.0
  0
SEQEND
  5
154
100
AcDbEntity
  8
0
370
     0
390
0
  0
POLYLINE
  5
155
100
AcDbEntity
  8
0
370
    13
390
0
 62
     7
100
AcDb2dPolyline
 66
     1
 10
0.0
 20
0.0
 30
0.0
 71
     3
  0
VERTEX
  5
156
100
AcDbEntity
  8
0
370
     0
390
0
100
AcDbVertex
100
AcDb2dVertex
 10
210.814514
 20
274.854462
 30
0.0
  0
VERTEX
  5
157
100
AcDbEntity
  8
0
370
     0
390
0
100
AcDbVertex
100
AcDb2dVertex
 10
210.296875
 20
276.786316
 30
0.0
  0
VERTEX
  5
158
100
AcDbEntity
  8
0
370
     0
390
0
100
AcDbVertex
100
AcDb2dVertex
 10
209.779236
 20
274.854462
 30
0.0
  0
SEQEND
  5
159
100
AcDbEntity
  8
0
370
     0
390
0
  0
LINE
  5
15A
100
AcDbEntity
  8
0
370
    13
390
0
 62
     7
100
AcDbLine
 10
210.296875
 20
246.786301
 30
0.0
 11
210.296875
 21
276.786316
 31
0.0
210
0.0
220
0.0
230
1.0
  0
LINE
  5
15B
100
AcDbEntity
  8
0
370
    35
390
0
 62
     7
100
AcDbLine
 10
202.77272
 20
246.786301
 30
0.0
 11
202.77272
 21
276.786316
 31
0.0
210
0.0
220
0.0
230
1.0
  0
LINE
  5
15C
100
AcDbEntity
  8
0
370
    35
390
0
 62
     7
 48
0.275844
100
AcDbLine
 10
202.77272
 20
276.786316
 30
0.0
 11
192.77272
 21
281.449371
 31
0.0
210
0.0
220
0.0
230
1.0
  0
LINE
  5
15D
100
AcDbEntity
  8
0
370
    35
390
0
 62
     7
100
AcDbLine
 10
192.77272
 20
281.449371
 30
0.0
 11
192.77272
 21
246.786301
 31
0.0
210
0.0
220
0.0
230
1.0
  0
LINE
  5
15E
100
AcDbEntity
  8
0
370
    35
390
0
 62
     7
 48
0.25
100
AcDbLine
 10
202.77272
 20
246.786301
 30
0.0
 11
192.77272
 21
246.786301
 31
0.0
210
0.0
220
0.0
230
1.0
  0
LINE
  5
15F
100
AcDbEntity
  8
0
370
    35
390
0
 62
     7
100
AcDbLine
 10
13.765228
 20
225.803024
 30
0.0
 11
173.765228
 21
225.803024
 31
0.0
210
0.0
220
0.0
230
1.0
  0
LINE
  5
160
100
AcDbEntity
  8
0
370
    35
390
0
 62
     7
100
AcDbLine
 10
173.765228
 20
225.803024
 30
0.0
 11
173.765228
 21
194.039749
 31
0.0
210
0.0
220
0.0
230
1.0
  0
LINE
  5
161
100
AcDbEntity
  8
0
370
    35
390
0
 62
     7
100
AcDbLine
 10
13.765228
 20
225.803024
 30
0.0
 11
13.765228
 21
194.039749
 31
0.0
210
0.0
220
0.0
230
1.0
  0
LINE
  5
162
100
AcDbEntity
  8
0
370
    35
390
0
 62
     7
100
AcDbLine
 10
173.765228
 20
194.039749
 30
0.0
 11
13.765228
 21
194.039749
 31
0.0
210
0.0
220
0.0
230
1.0
  0
POLYLINE
  5
163
100
AcDbEntity
  8
0
370
    13
390
0
 62
     7
100
AcDb2dPolyline
 66
     1
 10
0.0
 20
0.0
 30
0.0
 70
     1
 71
    53
  0
VERTEX
  5
164
100
AcDbEntity
  8
0
370
     0
390
0
100
AcDbVertex
100
AcDb2dVertex
 10
214.49617
 20
200.484009
 30
0.0
  0
VERTEX
  5
165
100
AcDbEntity
  8
0
370
     0
390
0
100
AcDbVertex
100
AcDb2dVertex
 10
214.531464
 20
200.484009
 30
0.0
  0
VERTEX
  5
166
100
AcDbEntity
  8
0
370
     0
390
0
100
AcDbVertex
100
AcDb2dVertex
 10
215.015625
 20
200.564697
 30
0.0
  0
VERTEX
  5
167
100
AcDbEntity
  8
0
370
     0
390
0
100
AcDbVertex
100
AcDb2dVertex
 10
215.378738
 20
200.801727
 30
0.0
  0
VERTEX
  5
168
100
AcDbEntity
  8
0
370
     0
390
0
100
AcDbVertex
100
AcDb2dVertex
 10
215.610718
 20
201.174927
 30
0.0
  0
VERTEX
  5
169
100
AcDbEntity
  8
0
370
     0
390
0
100
AcDbVertex
100
AcDb2dVertex
 10
215.696457
 20
201.669159
 30
0.0
  0
VERTEX
  5
16A
100
AcDbEntity
  8
0
370
     0
390
0
100
AcDbVertex
100
AcDb2dVertex
 10
215.610718
 20
202.193665
 30
0.0
  0
VERTEX
  5
16B
100
AcDbEntity
  8
0
370
     0
390
0
100
AcDbVertex
100
AcDb2dVertex
 10
215.388824
 20
202.587036
 30
0.0
  0
VERTEX
  5
16C
100
AcDbEntity
  8
0
370
     0
390
0
100
AcDbVertex
100
AcDb2dVertex
 10
215.035797
 20
202.839203
 30
0.0
  0
VERTEX
  5
16D
100
AcDbEntity
  8
0
370
     0
390
0
100
AcDbVertex
100
AcDb2dVertex
 10
214.581909
 20
202.929977
 30
0.0
  0
VERTEX
  5
16E
100
AcDbEntity
  8
0
370
     0
390
0
100
AcDbVertex
100
AcDb2dVertex
 10
214.284348
 20
202.889633
 30
0.0
  0
VERTEX
  5
16F
100
AcDbEntity
  8
0
370
     0
390
0
100
AcDbVertex
100
AcDb2dVertex
 10
214.042282
 20
202.778671
 30
0.0
  0
VERTEX
  5
170
100
AcDbEntity
  8
0
370
     0
390
0
100
AcDbVertex
100
AcDb2dVertex
 10
213.855682
 20
202.597122
 30
0.0
  0
VERTEX
  5
171
100
AcDbEntity
  8
0
370
     0
390
0
100
AcDbVertex
100
AcDb2dVertex
 10
213.719513
 20
202.355042
 30
0.0
  0
VERTEX
  5
172
100
AcDbEntity
  8
0
370
     0
390
0
100
AcDbVertex
100
AcDb2dVertex
 10
213.447174
 20
202.682861
 30
0.0
  0
VERTEX
  5
173
100
AcDbEntity
  8
0
370
     0
390
0
100
AcDbVertex
100
AcDb2dVertex
 10
213.013458
 20
202.798843
 30
0.0
  0
VERTEX
  5
174
100
AcDbEntity
  8
0
370
     0
390
0
100
AcDbVertex
100
AcDb2dVertex
 10
212.620087
 20
202.723206
 30
0.0
  0
VERTEX
  5
175
100
AcDbEntity
  8
0
370
     0
390
0
100
AcDbVertex
100
AcDb2dVertex
 10
212.32254
 20
202.506348
 30
0.0
  0
VERTEX
  5
176
100
AcDbEntity
  8
0
370
     0
390
0
100
AcDbVertex
100
AcDb2dVertex
 10
212.135941
 20
202.15332
 30
0.0
  0
VERTEX
  5
177
100
AcDbEntity
  8
0
370
     0
390
0
100
AcDbVertex
100
AcDb2dVertex
 10
212.070374
 20
201.669159
 30
0.0
  0
VERTEX
  5
178
100
AcDbEntity
  8
0
370
     0
390
0
100
AcDbVertex
100
AcDb2dVertex
 10
212.151062
 20
201.215271
 30
0.0
  0
VERTEX
  5
179
100
AcDbEntity
  8
0
370
     0
390
0
100
AcDbVertex
100
AcDb2dVertex
 10
212.372971
 20
200.867294
 30
0.0
  0
VERTEX
  5
17A
100
AcDbEntity
  8
0
370
     0
390
0
100
AcDbVertex
100
AcDb2dVertex
 10
212.725998
 20
200.64035
 30
0.0
  0
VERTEX
  5
17B
100
AcDbEntity
  8
0
370
     0
390
0
100
AcDbVertex
100
AcDb2dVertex
 10
213.195023
 20
200.564697
 30
0.0
  0
VERTEX
  5
17C
100
AcDbEntity
  8
0
370
     0
390
0
100
AcDbVertex
100
AcDb2dVertex
 10
213.230316
 20
200.564697
 30
0.0
  0
VERTEX
  5
17D
100
AcDbEntity
  8
0
370
     0
390
0
100
AcDbVertex
100
AcDb2dVertex
 10
213.230316
 20
201.01355
 30
0.0
  0
VERTEX
  5
17E
100
AcDbEntity
  8
0
370
     0
390
0
100
AcDbVertex
100
AcDb2dVertex
 10
212.907547
 20
201.053894
 30
0.0
  0
VERTEX
  5
17F
100
AcDbEntity
  8
0
370
     0
390
0
100
AcDbVertex
100
AcDb2dVertex
 10
212.675568
 20
201.185013
 30
0.0
  0
VERTEX
  5
180
100
AcDbEntity
  8
0
370
     0
390
0
100
AcDbVertex
100
AcDb2dVertex
 10
212.534348
 20
201.396835
 30
0.0
  0
VERTEX
  5
181
100
AcDbEntity
  8
0
370
     0
390
0
100
AcDbVertex
100
AcDb2dVertex
 10
212.483917
 20
201.694382
 30
0.0
  0
VERTEX
  5
182
100
AcDbEntity
  8
0
370
     0
390
0
100
AcDbVertex
100
AcDb2dVertex
 10
212.524261
 20
201.956635
 30
0.0
  0
VERTEX
  5
183
100
AcDbEntity
  8
0
370
     0
390
0
100
AcDbVertex
100
AcDb2dVertex
 10
212.630173
 20
202.14827
 30
0.0
  0
VERTEX
  5
184
100
AcDbEntity
  8
0
370
     0
390
0
100
AcDbVertex
100
AcDb2dVertex
 10
212.801636
 20
202.264267
 30
0.0
  0
VERTEX
  5
185
100
AcDbEntity
  8
0
370
     0
390
0
100
AcDbVertex
100
AcDb2dVertex
 10
213.03363
 20
202.309662
 30
0.0
  0
VERTEX
  5
186
100
AcDbEntity
  8
0
370
     0
390
0
100
AcDbVertex
100
AcDb2dVertex
 10
213.280746
 20
202.264267
 30
0.0
  0
VERTEX
  5
187
100
AcDbEntity
  8
0
370
     0
390
0
100
AcDbVertex
100
AcDb2dVertex
 10
213.447174
 20
202.143234
 30
0.0
  0
VERTEX
  5
188
100
AcDbEntity
  8
0
370
     0
390
0
100
AcDbVertex
100
AcDb2dVertex
 10
213.548035
 20
201.931412
 30
0.0
  0
VERTEX
  5
189
100
AcDbEntity
  8
0
370
     0
390
0
100
AcDbVertex
100
AcDb2dVertex
 10
213.578308
 20
201.643951
 30
0.0
  0
VERTEX
  5
18A
100
AcDbEntity
  8
0
370
     0
390
0
100
AcDbVertex
100
AcDb2dVertex
 10
213.573257
 20
201.447266
 30
0.0
  0
VERTEX
  5
18B
100
AcDbEntity
  8
0
370
     0
390
0
100
AcDbVertex
100
AcDb2dVertex
 10
213.97168
 20
201.447266
 30
0.0
  0
VERTEX
  5
18C
100
AcDbEntity
  8
0
370
     0
390
0
100
AcDbVertex
100
AcDb2dVertex
 10
213.961578
 20
201.694382
 30
0.0
  0
VERTEX
  5
18D
100
AcDbEntity
  8
0
370
     0
390
0
100
AcDbVertex
100
AcDb2dVertex
 10
214.006973
 20
202.0121
 30
0.0
  0
VERTEX
  5
18E
100
AcDbEntity
  8
0
370
     0
390
0
100
AcDbVertex
100
AcDb2dVertex
 10
214.128021
 20
202.24913
 30
0.0
  0
VERTEX
  5
18F
100
AcDbEntity
  8
0
370
     0
390
0
100
AcDbVertex
100
AcDb2dVertex
 10
214.324707
 20
202.39035
 30
0.0
  0
VERTEX
  5
190
100
AcDbEntity
  8
0
370
     0
390
0
100
AcDbVertex
100
AcDb2dVertex
 10
214.581909
 20
202.440781
 30
0.0
  0
VERTEX
  5
191
100
AcDbEntity
  8
0
370
     0
390
0
100
AcDbVertex
100
AcDb2dVertex
 10
214.874405
 20
202.3853
 30
0.0
  0
VERTEX
  5
192
100
AcDbEntity
  8
0
370
     0
390
0
100
AcDbVertex
100
AcDb2dVertex
 10
215.091278
 20
202.239044
 30
0.0
  0
VERTEX
  5
193
100
AcDbEntity
  8
0
370
     0
390
0
100
AcDbVertex
100
AcDb2dVertex
 10
215.227432
 20
202.007065
 30
0.0
  0
VERTEX
  5
194
100
AcDbEntity
  8
0
370
     0
390
0
100
AcDbVertex
100
AcDb2dVertex
 10
215.272827
 20
201.699432
 30
0.0
  0
VERTEX
  5
195
100
AcDbEntity
  8
0
370
     0
390
0
100
AcDbVertex
100
AcDb2dVertex
 10
215.222397
 20
201.381699
 30
0.0
  0
VERTEX
  5
196
100
AcDbEntity
  8
0
370
     0
390
0
100
AcDbVertex
100
AcDb2dVertex
 10
215.071091
 20
201.149719
 30
0.0
  0
VERTEX
  5
197
100
AcDbEntity
  8
0
370
     0
390
0
100
AcDbVertex
100
AcDb2dVertex
 10
214.829025
 20
201.003464
 30
0.0
  0
VERTEX
  5
198
100
AcDbEntity
  8
0
370
     0
390
0
100
AcDbVertex
100
AcDb2dVertex
 10
214.49617
 20
200.947983
 30
0.0
  0
SEQEND
  5
199
100
AcDbEntity
  8
0
370
     0
390
0
  0
POLYLINE
  5
19A
100
AcDbEntity
  8
0
370
    13
390
0
 62
     7
100
AcDb2dPolyline
 66
     1
 10
0.0
 20
0.0
 30
0.0
 70
     1
 71
    10
  0
VERTEX
  5
19B
100
AcDbEntity
  8
0
370
     0
390
0
100
AcDbVertex
100
AcDb2dVertex
 10
215.595596
 20
205.400146
 30
0.0
  0
VERTEX
  5
19C
100
AcDbEntity
  8
0
370
     0
390
0
100
AcDbVertex
100
AcDb2dVertex
 10
215.595596
 20
205.859085
 30
0.0
  0
VERTEX
  5
19D
100
AcDbEntity
  8
0
370
     0
390
0
100
AcDbVertex
100
AcDb2dVertex
 10
212.070374
 20
205.859085
 30
0.0
  0
VERTEX
  5
19E
100
AcDbEntity
  8
0
370
     0
390
0
100
AcDbVertex
100
AcDb2dVertex
 10
212.070374
 20
205.516144
 30
0.0
  0
VERTEX
  5
19F
100
AcDbEntity
  8
0
370
     0
390
0
100
AcDbVertex
100
AcDb2dVertex
 10
212.378021
 20
205.425354
 30
0.0
  0
VERTEX
  5
1A0
100
AcDbEntity
  8
0
370
     0
390
0
100
AcDbVertex
100
AcDb2dVertex
 10
212.584778
 20
205.243805
 30
0.0
  0
VERTEX
  5
1A1
100
AcDbEntity
  8
0
370
     0
390
0
100
AcDbVertex
100
AcDb2dVertex
 10
212.705826
 20
204.966431
 30
0.0
  0
VERTEX
  5
1A2
100
AcDbEntity
  8
0
370
     0
390
0
100
AcDbVertex
100
AcDb2dVertex
 10
212.74617
 20
204.583145
 30
0.0
  0
VERTEX
  5
1A3
100
AcDbEntity
  8
0
370
     0
390
0
100
AcDbVertex
100
AcDb2dVertex
 10
213.104233
 20
204.583145
 30
0.0
  0
VERTEX
  5
1A4
100
AcDbEntity
  8
0
370
     0
390
0
100
AcDbVertex
100
AcDb2dVertex
 10
213.104233
 20
205.400146
 30
0.0
  0
SEQEND
  5
1A5
100
AcDbEntity
  8
0
370
     0
390
0
  0
POLYLINE
  5
1A6
100
AcDbEntity
  8
0
370
    13
390
0
 62
     7
100
AcDb2dPolyline
 66
     1
 10
0.0
 20
0.0
 30
0.0
 70
     1
 71
     4
  0
VERTEX
  5
1A7
100
AcDbEntity
  8
0
370
     0
390
0
100
AcDbVertex
100
AcDb2dVertex
 10
215.595596
 20
208.878967
 30
0.0
  0
VERTEX
  5
1A8
100
AcDbEntity
  8
0
370
     0
390
0
100
AcDbVertex
100
AcDb2dVertex
 10
215.595596
 20
209.574936
 30
0.0
  0
VERTEX
  5
1A9
100
AcDbEntity
  8
0
370
     0
390
0
100
AcDbVertex
100
AcDb2dVertex
 10
214.844147
 20
209.574936
 30
0.0
  0
VERTEX
  5
1AA
100
AcDbEntity
  8
0
370
     0
390
0
100
AcDbVertex
100
AcDb2dVertex
 10
214.844147
 20
208.878967
 30
0.0
  0
SEQEND
  5
1AB
100
AcDbEntity
  8
0
370
     0
390
0
  0
POLYLINE
  5
1AC
100
AcDbEntity
  8
0
370
    13
390
0
 62
     7
100
AcDb2dPolyline
 66
     1
 10
0.0
 20
0.0
 30
0.0
 70
     1
 71
    13
  0
VERTEX
  5
1AD
100
AcDbEntity
  8
0
370
     0
390
0
100
AcDbVertex
100
AcDb2dVertex
 10
215.595596
 20
212.261963
 30
0.0
  0
VERTEX
  5
1AE
100
AcDbEntity
  8
0
370
     0
390
0
100
AcDbVertex
100
AcDb2dVertex
 10
215.595596
 20
212.771332
 30
0.0
  0
VERTEX
  5
1AF
100
AcDbEntity
  8
0
370
     0
390
0
100
AcDbVertex
100
AcDb2dVertex
 10
214.763458
 20
212.937759
 30
0.0
  0
VERTEX
  5
1B0
100
AcDbEntity
  8
0
370
     0
390
0
100
AcDbVertex
100
AcDb2dVertex
 10
213.986801
 20
213.230255
 30
0.0
  0
VERTEX
  5
1B1
100
AcDbEntity
  8
0
370
     0
390
0
100
AcDbVertex
100
AcDb2dVertex
 10
213.265625
 20
213.643799
 30
0.0
  0
VERTEX
  5
1B2
100
AcDbEntity
  8
0
370
     0
390
0
100
AcDbVertex
100
AcDb2dVertex
 10
212.589828
 20
214.183426
 30
0.0
  0
VERTEX
  5
1B3
100
AcDbEntity
  8
0
370
     0
390
0
100
AcDbVertex
100
AcDb2dVertex
 10
212.171234
 20
214.183426
 30
0.0
  0
VERTEX
  5
1B4
100
AcDbEntity
  8
0
370
     0
390
0
100
AcDbVertex
100
AcDb2dVertex
 10
212.171234
 20
211.782852
 30
0.0
  0
VERTEX
  5
1B5
100
AcDbEntity
  8
0
370
     0
390
0
100
AcDbVertex
100
AcDb2dVertex
 10
212.630173
 20
211.782852
 30
0.0
  0
VERTEX
  5
1B6
100
AcDbEntity
  8
0
370
     0
390
0
100
AcDbVertex
100
AcDb2dVertex
 10
212.630173
 20
213.69928
 30
0.0
  0
VERTEX
  5
1B7
100
AcDbEntity
  8
0
370
     0
390
0
100
AcDbVertex
100
AcDb2dVertex
 10
213.311005
 20
213.144531
 30
0.0
  0
VERTEX
  5
1B8
100
AcDbEntity
  8
0
370
     0
390
0
100
AcDbVertex
100
AcDb2dVertex
 10
214.02211
 20
212.725937
 30
0.0
  0
VERTEX
  5
1B9
100
AcDbEntity
  8
0
370
     0
390
0
100
AcDbVertex
100
AcDb2dVertex
 10
214.778595
 20
212.433426
 30
0.0
  0
SEQEND
  5
1BA
100
AcDbEntity
  8
0
370
     0
390
0
  0
POLYLINE
  5
1BB
100
AcDbEntity
  8
0
370
    13
390
0
 62
     7
100
AcDb2dPolyline
 66
     1
 10
0.0
 20
0.0
 30
0.0
 70
     1
 71
    35
  0
VERTEX
  5
1BC
100
AcDbEntity
  8
0
370
     0
390
0
100
AcDbVertex
100
AcDb2dVertex
 10
213.038681
 20
217.909363
 30
0.0
  0
VERTEX
  5
1BD
100
AcDbEntity
  8
0
370
     0
390
0
100
AcDbVertex
100
AcDb2dVertex
 10
212.630173
 20
217.813538
 30
0.0
  0
VERTEX
  5
1BE
100
AcDbEntity
  8
0
370
     0
390
0
100
AcDbVertex
100
AcDb2dVertex
 10
212.327576
 20
217.591644
 30
0.0
  0
VERTEX
  5
1BF
100
AcDbEntity
  8
0
370
     0
390
0
100
AcDbVertex
100
AcDb2dVertex
 10
212.135941
 20
217.248703
 30
0.0
  0
VERTEX
  5
1C0
100
AcDbEntity
  8
0
370
     0
390
0
100
AcDbVertex
100
AcDb2dVertex
 10
212.070374
 20
216.804901
 30
0.0
  0
VERTEX
  5
1C1
100
AcDbEntity
  8
0
370
     0
390
0
100
AcDbVertex
100
AcDb2dVertex
 10
212.105682
 20
216.507355
 30
0.0
  0
VERTEX
  5
1C2
100
AcDbEntity
  8
0
370
     0
390
0
100
AcDbVertex
100
AcDb2dVertex
 10
212.201508
 20
216.250153
 30
0.0
  0
VERTEX
  5
1C3
100
AcDbEntity
  8
0
370
     0
390
0
100
AcDbVertex
100
AcDb2dVertex
 10
212.357834
 20
216.023193
 30
0.0
  0
VERTEX
  5
1C4
100
AcDbEntity
  8
0
370
     0
390
0
100
AcDbVertex
100
AcDb2dVertex
 10
212.579742
 20
215.831558
 30
0.0
  0
VERTEX
  5
1C5
100
AcDbEntity
  8
0
370
     0
390
0
100
AcDbVertex
100
AcDb2dVertex
 10
212.857117
 20
215.680267
 30
0.0
  0
VERTEX
  5
1C6
100
AcDbEntity
  8
0
370
     0
390
0
100
AcDbVertex
100
AcDb2dVertex
 10
213.195023
 20
215.569305
 30
0.0
  0
VERTEX
  5
1C7
100
AcDbEntity
  8
0
370
     0
390
0
100
AcDbVertex
100
AcDb2dVertex
 10
213.59343
 20
215.498703
 30
0.0
  0
VERTEX
  5
1C8
100
AcDbEntity
  8
0
370
     0
390
0
100
AcDbVertex
100
AcDb2dVertex
 10
214.042282
 20
215.478531
 30
0.0
  0
VERTEX
  5
1C9
100
AcDbEntity
  8
0
370
     0
390
0
100
AcDbVertex
100
AcDb2dVertex
 10
214.758423
 20
215.559219
 30
0.0
  0
VERTEX
  5
1CA
100
AcDbEntity
  8
0
370
     0
390
0
100
AcDbVertex
100
AcDb2dVertex
 10
215.277863
 20
215.806335
 30
0.0
  0
VERTEX
  5
1CB
100
AcDbEntity
  8
0
370
     0
390
0
100
AcDbVertex
100
AcDb2dVertex
 10
215.590546
 20
216.204758
 30
0.0
  0
VERTEX
  5
1CC
100
AcDbEntity
  8
0
370
     0
390
0
100
AcDbVertex
100
AcDb2dVertex
 10
215.696457
 20
216.74942
 30
0.0
  0
VERTEX
  5
1CD
100
AcDbEntity
  8
0
370
     0
390
0
100
AcDbVertex
100
AcDb2dVertex
 10
215.605682
 20
217.238617
 30
0.0
  0
VERTEX
  5
1CE
100
AcDbEntity
  8
0
370
     0
390
0
100
AcDbVertex
100
AcDb2dVertex
 10
215.368652
 20
217.611816
 30
0.0
  0
VERTEX
  5
1CF
100
AcDbEntity
  8
0
370
     0
390
0
100
AcDbVertex
100
AcDb2dVertex
 10
214.995453
 20
217.853897
 30
0.0
  0
VERTEX
  5
1D0
100
AcDbEntity
  8
0
370
     0
390
0
100
AcDbVertex
100
AcDb2dVertex
 10
214.521393
 20
217.939621
 30
0.0
  0
VERTEX
  5
1D1
100
AcDbEntity
  8
0
370
     0
390
0
100
AcDbVertex
100
AcDb2dVertex
 10
214.042282
 20
217.853897
 30
0.0
  0
VERTEX
  5
1D2
100
AcDbEntity
  8
0
370
     0
390
0
100
AcDbVertex
100
AcDb2dVertex
 10
213.674118
 20
217.621902
 30
0.0
  0
VERTEX
  5
1D3
100
AcDbEntity
  8
0
370
     0
390
0
100
AcDbVertex
100
AcDb2dVertex
 10
213.442139
 20
217.26384
 30
0.0
  0
VERTEX
  5
1D4
100
AcDbEntity
  8
0
370
     0
390
0
100
AcDbVertex
100
AcDb2dVertex
 10
213.36145
 20
216.820038
 30
0.0
  0
VERTEX
  5
1D5
100
AcDbEntity
  8
0
370
     0
390
0
100
AcDbVertex
100
AcDb2dVertex
 10
213.462311
 20
216.340927
 30
0.0
  0
VERTEX
  5
1D6
100
AcDbEntity
  8
0
370
     0
390
0
100
AcDbVertex
100
AcDb2dVertex
 10
213.749771
 20
215.982849
 30
0.0
  0
VERTEX
  5
1D7
100
AcDbEntity
  8
0
370
     0
390
0
100
AcDbVertex
100
AcDb2dVertex
 10
213.195023
 20
216.058502
 30
0.0
  0
VERTEX
  5
1D8
100
AcDbEntity
  8
0
370
     0
390
0
100
AcDbVertex
100
AcDb2dVertex
 10
212.7966
 20
216.219879
 30
0.0
  0
VERTEX
  5
1D9
100
AcDbEntity
  8
0
370
     0
390
0
100
AcDbVertex
100
AcDb2dVertex
 10
212.55957
 20
216.46701
 30
0.0
  0
VERTEX
  5
1DA
100
AcDbEntity
  8
0
370
     0
390
0
100
AcDbVertex
100
AcDb2dVertex
 10
212.478882
 20
216.809937
 30
0.0
  0
VERTEX
  5
1DB
100
AcDbEntity
  8
0
370
     0
390
0
100
AcDbVertex
100
AcDb2dVertex
 10
212.519226
 20
217.062103
 30
0.0
  0
VERTEX
  5
1DC
100
AcDbEntity
  8
0
370
     0
390
0
100
AcDbVertex
100
AcDb2dVertex
 10
212.625137
 20
217.253754
 30
0.0
  0
VERTEX
  5
1DD
100
AcDbEntity
  8
0
370
     0
390
0
100
AcDbVertex
100
AcDb2dVertex
 10
212.801636
 20
217.379822
 30
0.0
  0
VERTEX
  5
1DE
100
AcDbEntity
  8
0
370
     0
390
0
100
AcDbVertex
100
AcDb2dVertex
 10
213.038681
 20
217.445389
 30
0.0
  0
SEQEND
  5
1DF
100
AcDbEntity
  8
0
370
     0
390
0
  0
POLYLINE
  5
1E0
100
AcDbEntity
  8
0
370
    13
390
0
 62
     7
100
AcDb2dPolyline
 66
     1
 10
0.0
 20
0.0
 30
0.0
 70
     1
 71
    16
  0
VERTEX
  5
1E1
100
AcDbEntity
  8
0
370
     0
390
0
100
AcDbVertex
100
AcDb2dVertex
 10
214.526428
 20
217.450439
 30
0.0
  0
VERTEX
  5
1E2
100
AcDbEntity
  8
0
370
     0
390
0
100
AcDbVertex
100
AcDb2dVertex
 10
214.844147
 20
217.394958
 30
0.0
  0
VERTEX
  5
1E3
100
AcDbEntity
  8
0
370
     0
390
0
100
AcDbVertex
100
AcDb2dVertex
 10
215.086227
 20
217.253754
 30
0.0
  0
VERTEX
  5
1E4
100
AcDbEntity
  8
0
370
     0
390
0
100
AcDbVertex
100
AcDb2dVertex
 10
215.247604
 20
217.026794
 30
0.0
  0
VERTEX
  5
1E5
100
AcDbEntity
  8
0
370
     0
390
0
100
AcDbVertex
100
AcDb2dVertex
 10
215.298035
 20
216.744385
 30
0.0
  0
VERTEX
  5
1E6
100
AcDbEntity
  8
0
370
     0
390
0
100
AcDbVertex
100
AcDb2dVertex
 10
215.247604
 20
216.446838
 30
0.0
  0
VERTEX
  5
1E7
100
AcDbEntity
  8
0
370
     0
390
0
100
AcDbVertex
100
AcDb2dVertex
 10
215.091278
 20
216.219879
 30
0.0
  0
VERTEX
  5
1E8
100
AcDbEntity
  8
0
370
     0
390
0
100
AcDbVertex
100
AcDb2dVertex
 10
214.849197
 20
216.073639
 30
0.0
  0
VERTEX
  5
1E9
100
AcDbEntity
  8
0
370
     0
390
0
100
AcDbVertex
100
AcDb2dVertex
 10
214.531464
 20
216.028244
 30
0.0
  0
VERTEX
  5
1EA
100
AcDbEntity
  8
0
370
     0
390
0
100
AcDbVertex
100
AcDb2dVertex
 10
214.218796
 20
216.078674
 30
0.0
  0
VERTEX
  5
1EB
100
AcDbEntity
  8
0
370
     0
390
0
100
AcDbVertex
100
AcDb2dVertex
 10
213.981766
 20
216.219879
 30
0.0
  0
VERTEX
  5
1EC
100
AcDbEntity
  8
0
370
     0
390
0
100
AcDbVertex
100
AcDb2dVertex
 10
213.83046
 20
216.451874
 30
0.0
  0
VERTEX
  5
1ED
100
AcDbEntity
  8
0
370
     0
390
0
100
AcDbVertex
100
AcDb2dVertex
 10
213.774994
 20
216.764557
 30
0.0
  0
VERTEX
  5
1EE
100
AcDbEntity
  8
0
370
     0
390
0
100
AcDbVertex
100
AcDb2dVertex
 10
213.83046
 20
217.036896
 30
0.0
  0
VERTEX
  5
1EF
100
AcDbEntity
  8
0
370
     0
390
0
100
AcDbVertex
100
AcDb2dVertex
 10
213.976715
 20
217.253754
 30
0.0
  0
VERTEX
  5
1F0
100
AcDbEntity
  8
0
370
     0
390
0
100
AcDbVertex
100
AcDb2dVertex
 10
214.213745
 20
217.394958
 30
0.0
  0
SEQEND
  5
1F1
100
AcDbEntity
  8
0
370
     0
390
0
  0
LINE
  5
1F2
100
AcDbEntity
  8
0
370
    13
390
0
 62
     7
100
AcDbLine
 10
195.486771
 20
193.345306
 30
0.0
 11
219.595596
 21
193.345306
 31
0.0
210
0.0
220
0.0
230
1.0
  0
LINE
  5
1F3
100
AcDbEntity
  8
0
370
    13
390
0
 62
     7
100
AcDbLine
 10
195.486771
 20
225.108582
 30
0.0
 11
219.595596
 21
225.108582
 31
0.0
210
0.0
220
0.0
230
1.0
  0
POLYLINE
  5
1F4
100
AcDbEntity
  8
0
370
    13
390
0
 62
     7
100
AcDb2dPolyline
 66
     1
 10
0.0
 20
0.0
 30
0.0
 71
     3
  0
VERTEX
  5
1F5
100
AcDbEntity
  8
0
370
     0
390
0
100
AcDbVertex
100
AcDb2dVertex
 10
218.113235
 20
223.176727
 30
0.0
  0
VERTEX
  5
1F6
100
AcDbEntity
  8
0
370
     0
390
0
100
AcDbVertex
100
AcDb2dVertex
 10
217.595596
 20
225.108582
 30
0.0
  0
VERTEX
  5
1F7
100
AcDbEntity
  8
0
370
     0
390
0
100
AcDbVertex
100
AcDb2dVertex
 10
217.077957
 20
223.176727
 30
0.0
  0
SEQEND
  5
1F8
100
AcDbEntity
  8
0
370
     0
390
0
  0
POLYLINE
  5
1F9
100
AcDbEntity
  8
0
370
    13
390
0
 62
     7
100
AcDb2dPolyline
 66
     1
 10
0.0
 20
0.0
 30
0.0
 71
     3
  0
VERTEX
  5
1FA
100
AcDbEntity
  8
0
370
     0
390
0
100
AcDbVertex
100
AcDb2dVertex
 10
217.077957
 20
195.277161
 30
0.0
  0
VERTEX
  5
1FB
100
AcDbEntity
  8
0
370
     0
390
0
100
AcDbVertex
100
AcDb2dVertex
 10
217.595596
 20
193.345306
 30
0.0
  0
VERTEX
  5
1FC
100
AcDbEntity
  8
0
370
     0
390
0
100
AcDbVertex
100
AcDb2dVertex
 10
218.113235
 20
195.277161
 30
0.0
  0
SEQEND
  5
1FD
100
AcDbEntity
  8
0
370
     0
390
0
  0
LINE
  5
1FE
100
AcDbEntity
  8
0
370
    13
390
0
 62
     7
100
AcDbLine
 10
217.595596
 20
193.345306
 30
0.0
 11
217.595596
 21
225.108582
 31
0.0
210
0.0
220
0.0
230
1.0
  0
POLYLINE
  5
1FF
100
AcDbEntity
  8
0
370
    13
390
0
 62
     7
100
AcDb2dPolyline
 66
     1
 10
0.0
 20
0.0
 30
0.0
 70
     1
 71
    53
  0
VERTEX
  5
200
100
AcDbEntity
  8
0
370
     0
390
0
100
AcDbVertex
100
AcDb2dVertex
 10
207.412384
 20
206.969681
 30
0.0
  0
VERTEX
  5
201
100
AcDbEntity
  8
0
370
     0
390
0
100
AcDbVertex
100
AcDb2dVertex
 10
207.447693
 20
206.969681
 30
0.0
  0
VERTEX
  5
202
100
AcDbEntity
  8
0
370
     0
390
0
100
AcDbVertex
100
AcDb2dVertex
 10
207.931839
 20
207.050369
 30
0.0
  0
VERTEX
  5
203
100
AcDbEntity
  8
0
370
     0
390
0
100
AcDbVertex
100
AcDb2dVertex
 10
208.294952
 20
207.287399
 30
0.0
  0
VERTEX
  5
204
100
AcDbEntity
  8
0
370
     0
390
0
100
AcDbVertex
100
AcDb2dVertex
 10
208.526932
 20
207.660599
 30
0.0
  0
VERTEX
  5
205
100
AcDbEntity
  8
0
370
     0
390
0
100
AcDbVertex
100
AcDb2dVertex
 10
208.612671
 20
208.154831
 30
0.0
  0
VERTEX
  5
206
100
AcDbEntity
  8
0
370
     0
390
0
100
AcDbVertex
100
AcDb2dVertex
 10
208.526932
 20
208.679337
 30
0.0
  0
VERTEX
  5
207
100
AcDbEntity
  8
0
370
     0
390
0
100
AcDbVertex
100
AcDb2dVertex
 10
208.305038
 20
209.072708
 30
0.0
  0
VERTEX
  5
208
100
AcDbEntity
  8
0
370
     0
390
0
100
AcDbVertex
100
AcDb2dVertex
 10
207.952011
 20
209.32486
 30
0.0
  0
VERTEX
  5
209
100
AcDbEntity
  8
0
370
     0
390
0
100
AcDbVertex
100
AcDb2dVertex
 10
207.498123
 20
209.415649
 30
0.0
  0
VERTEX
  5
20A
100
AcDbEntity
  8
0
370
     0
390
0
100
AcDbVertex
100
AcDb2dVertex
 10
207.200562
 20
209.37529
 30
0.0
  0
VERTEX
  5
20B
100
AcDbEntity
  8
0
370
     0
390
0
100
AcDbVertex
100
AcDb2dVertex
 10
206.958496
 20
209.264343
 30
0.0
  0
VERTEX
  5
20C
100
AcDbEntity
  8
0
370
     0
390
0
100
AcDbVertex
100
AcDb2dVertex
 10
206.771896
 20
209.082794
 30
0.0
  0
VERTEX
  5
20D
100
AcDbEntity
  8
0
370
     0
390
0
100
AcDbVertex
100
AcDb2dVertex
 10
206.635727
 20
208.840714
 30
0.0
  0
VERTEX
  5
20E
100
AcDbEntity
  8
0
370
     0
390
0
100
AcDbVertex
100
AcDb2dVertex
 10
206.363388
 20
209.168518
 30
0.0
  0
VERTEX
  5
20F
100
AcDbEntity
  8
0
370
     0
390
0
100
AcDbVertex
100
AcDb2dVertex
 10
205.929672
 20
209.284515
 30
0.0
  0
VERTEX
  5
210
100
AcDbEntity
  8
0
370
     0
390
0
100
AcDbVertex
100
AcDb2dVertex
 10
205.536301
 20
209.208862
 30
0.0
  0
VERTEX
  5
211
100
AcDbEntity
  8
0
370
     0
390
0
100
AcDbVertex
100
AcDb2dVertex
 10
205.238754
 20
208.992004
 30
0.0
  0
VERTEX
  5
212
100
AcDbEntity
  8
0
370
     0
390
0
100
AcDbVertex
100
AcDb2dVertex
 10
205.052155
 20
208.638977
 30
0.0
  0
VERTEX
  5
213
100
AcDbEntity
  8
0
370
     0
390
0
100
AcDbVertex
100
AcDb2dVertex
 10
204.986588
 20
208.154831
 30
0.0
  0
VERTEX
  5
214
100
AcDbEntity
  8
0
370
     0
390
0
100
AcDbVertex
100
AcDb2dVertex
 10
205.067276
 20
207.700943
 30
0.0
  0
VERTEX
  5
215
100
AcDbEntity
  8
0
370
     0
390
0
100
AcDbVertex
100
AcDb2dVertex
 10
205.289185
 20
207.352966
 30
0.0
  0
VERTEX
  5
216
100
AcDbEntity
  8
0
370
     0
390
0
100
AcDbVertex
100
AcDb2dVertex
 10
205.642212
 20
207.126022
 30
0.0
  0
VERTEX
  5
217
100
AcDbEntity
  8
0
370
     0
390
0
100
AcDbVertex
100
AcDb2dVertex
 10
206.111237
 20
207.050369
 30
0.0
  0
VERTEX
  5
218
100
AcDbEntity
  8
0
370
     0
390
0
100
AcDbVertex
100
AcDb2dVertex
 10
206.14653
 20
207.050369
 30
0.0
  0
VERTEX
  5
219
100
AcDbEntity
  8
0
370
     0
390
0
100
AcDbVertex
100
AcDb2dVertex
 10
206.14653
 20
207.499222
 30
0.0
  0
VERTEX
  5
21A
100
AcDbEntity
  8
0
370
     0
390
0
100
AcDbVertex
100
AcDb2dVertex
 10
205.823761
 20
207.539566
 30
0.0
  0
VERTEX
  5
21B
100
AcDbEntity
  8
0
370
     0
390
0
100
AcDbVertex
100
AcDb2dVertex
 10
205.591782
 20
207.670685
 30
0.0
  0
VERTEX
  5
21C
100
AcDbEntity
  8
0
370
     0
390
0
100
AcDbVertex
100
AcDb2dVertex
 10
205.450562
 20
207.882507
 30
0.0
  0
VERTEX
  5
21D
100
AcDbEntity
  8
0
370
     0
390
0
100
AcDbVertex
100
AcDb2dVertex
 10
205.400131
 20
208.180054
 30
0.0
  0
VERTEX
  5
21E
100
AcDbEntity
  8
0
370
     0
390
0
100
AcDbVertex
100
AcDb2dVertex
 10
205.440475
 20
208.442291
 30
0.0
  0
VERTEX
  5
21F
100
AcDbEntity
  8
0
370
     0
390
0
100
AcDbVertex
100
AcDb2dVertex
 10
205.546387
 20
208.633942
 30
0.0
  0
VERTEX
  5
220
100
AcDbEntity
  8
0
370
     0
390
0
100
AcDbVertex
100
AcDb2dVertex
 10
205.717865
 20
208.749939
 30
0.0
  0
VERTEX
  5
221
100
AcDbEntity
  8
0
370
     0
390
0
100
AcDbVertex
100
AcDb2dVertex
 10
205.949844
 20
208.795319
 30
0.0
  0
VERTEX
  5
222
100
AcDbEntity
  8
0
370
     0
390
0
100
AcDbVertex
100
AcDb2dVertex
 10
206.19696
 20
208.749939
 30
0.0
  0
VERTEX
  5
223
100
AcDbEntity
  8
0
370
     0
390
0
100
AcDbVertex
100
AcDb2dVertex
 10
206.363388
 20
208.628906
 30
0.0
  0
VERTEX
  5
224
100
AcDbEntity
  8
0
370
     0
390
0
100
AcDbVertex
100
AcDb2dVertex
 10
206.464264
 20
208.417084
 30
0.0
  0
VERTEX
  5
225
100
AcDbEntity
  8
0
370
     0
390
0
100
AcDbVertex
100
AcDb2dVertex
 10
206.494522
 20
208.129623
 30
0.0
  0
VERTEX
  5
226
100
AcDbEntity
  8
0
370
     0
390
0
100
AcDbVertex
100
AcDb2dVertex
 10
206.489471
 20
207.932938
 30
0.0
  0
VERTEX
  5
227
100
AcDbEntity
  8
0
370
     0
390
0
100
AcDbVertex
100
AcDb2dVertex
 10
206.887894
 20
207.932938
 30
0.0
  0
VERTEX
  5
228
100
AcDbEntity
  8
0
370
     0
390
0
100
AcDbVertex
100
AcDb2dVertex
 10
206.877808
 20
208.180054
 30
0.0
  0
VERTEX
  5
229
100
AcDbEntity
  8
0
370
     0
390
0
100
AcDbVertex
100
AcDb2dVertex
 10
206.923187
 20
208.497772
 30
0.0
  0
VERTEX
  5
22A
100
AcDbEntity
  8
0
370
     0
390
0
100
AcDbVertex
100
AcDb2dVertex
 10
207.04422
 20
208.734802
 30
0.0
  0
VERTEX
  5
22B
100
AcDbEntity
  8
0
370
     0
390
0
100
AcDbVertex
100
AcDb2dVertex
 10
207.240906
 20
208.876022
 30
0.0
  0
VERTEX
  5
22C
100
AcDbEntity
  8
0
370
     0
390
0
100
AcDbVertex
100
AcDb2dVertex
 10
207.498123
 20
208.926453
 30
0.0
  0
VERTEX
  5
22D
100
AcDbEntity
  8
0
370
     0
390
0
100
AcDbVertex
100
AcDb2dVertex
 10
207.790619
 20
208.870972
 30
0.0
  0
VERTEX
  5
22E
100
AcDbEntity
  8
0
370
     0
390
0
100
AcDbVertex
100
AcDb2dVertex
 10
208.007477
 20
208.724716
 30
0.0
  0
VERTEX
  5
22F
100
AcDbEntity
  8
0
370
     0
390
0
100
AcDbVertex
100
AcDb2dVertex
 10
208.143646
 20
208.492737
 30
0.0
  0
VERTEX
  5
230
100
AcDbEntity
  8
0
370
     0
390
0
100
AcDbVertex
100
AcDb2dVertex
 10
208.189041
 20
208.185089
 30
0.0
  0
VERTEX
  5
231
100
AcDbEntity
  8
0
370
     0
390
0
100
AcDbVertex
100
AcDb2dVertex
 10
208.138611
 20
207.867371
 30
0.0
  0
VERTEX
  5
232
100
AcDbEntity
  8
0
370
     0
390
0
100
AcDbVertex
100
AcDb2dVertex
 10
207.987305
 20
207.635376
 30
0.0
  0
VERTEX
  5
233
100
AcDbEntity
  8
0
370
     0
390
0
100
AcDbVertex
100
AcDb2dVertex
 10
207.745239
 20
207.489136
 30
0.0
  0
VERTEX
  5
234
100
AcDbEntity
  8
0
370
     0
390
0
100
AcDbVertex
100
AcDb2dVertex
 10
207.412384
 20
207.433655
 30
0.0
  0
SEQEND
  5
235
100
AcDbEntity
  8
0
370
     0
390
0
  0
POLYLINE
  5
236
100
AcDbEntity
  8
0
370
    13
390
0
 62
     7
100
AcDb2dPolyline
 66
     1
 10
0.0
 20
0.0
 30
0.0
 70
     1
 71
    17
  0
VERTEX
  5
237
100
AcDbEntity
  8
0
370
     0
390
0
100
AcDbVertex
100
AcDb2dVertex
 10
206.802155
 20
210.761169
 30
0.0
  0
VERTEX
  5
238
100
AcDbEntity
  8
0
370
     0
390
0
100
AcDbVertex
100
AcDb2dVertex
 10
207.593933
 20
210.836823
 30
0.0
  0
VERTEX
  5
239
100
AcDbEntity
  8
0
370
     0
390
0
100
AcDbVertex
100
AcDb2dVertex
 10
208.158783
 20
211.073853
 30
0.0
  0
VERTEX
  5
23A
100
AcDbEntity
  8
0
370
     0
390
0
100
AcDbVertex
100
AcDb2dVertex
 10
208.501724
 20
211.452103
 30
0.0
  0
VERTEX
  5
23B
100
AcDbEntity
  8
0
370
     0
390
0
100
AcDbVertex
100
AcDb2dVertex
 10
208.612671
 20
211.976593
 30
0.0
  0
VERTEX
  5
23C
100
AcDbEntity
  8
0
370
     0
390
0
100
AcDbVertex
100
AcDb2dVertex
 10
208.501724
 20
212.496048
 30
0.0
  0
VERTEX
  5
23D
100
AcDbEntity
  8
0
370
     0
390
0
100
AcDbVertex
100
AcDb2dVertex
 10
208.158783
 20
212.874283
 30
0.0
  0
VERTEX
  5
23E
100
AcDbEntity
  8
0
370
     0
390
0
100
AcDbVertex
100
AcDb2dVertex
 10
207.593933
 20
213.106277
 30
0.0
  0
VERTEX
  5
23F
100
AcDbEntity
  8
0
370
     0
390
0
100
AcDbVertex
100
AcDb2dVertex
 10
206.802155
 20
213.186966
 30
0.0
  0
VERTEX
  5
240
100
AcDbEntity
  8
0
370
     0
390
0
100
AcDbVertex
100
AcDb2dVertex
 10
206.015411
 20
213.106277
 30
0.0
  0
VERTEX
  5
241
100
AcDbEntity
  8
0
370
     0
390
0
100
AcDbVertex
100
AcDb2dVertex
 10
205.702728
 20
213.010452
 30
0.0
  0
VERTEX
  5
242
100
AcDbEntity
  8
0
370
     0
390
0
100
AcDbVertex
100
AcDb2dVertex
 10
205.445526
 20
212.874283
 30
0.0
  0
VERTEX
  5
243
100
AcDbEntity
  8
0
370
     0
390
0
100
AcDbVertex
100
AcDb2dVertex
 10
205.102585
 20
212.496048
 30
0.0
  0
VERTEX
  5
244
100
AcDbEntity
  8
0
370
     0
390
0
100
AcDbVertex
100
AcDb2dVertex
 10
204.986588
 20
211.976593
 30
0.0
  0
VERTEX
  5
245
100
AcDbEntity
  8
0
370
     0
390
0
100
AcDbVertex
100
AcDb2dVertex
 10
205.102585
 20
211.452103
 30
0.0
  0
VERTEX
  5
246
100
AcDbEntity
  8
0
370
     0
390
0
100
AcDbVertex
100
AcDb2dVertex
 10
205.450562
 20
211.073853
 30
0.0
  0
VERTEX
  5
247
100
AcDbEntity
  8
0
370
     0
390
0
100
AcDbVertex
100
AcDb2dVertex
 10
206.015411
 20
210.836823
 30
0.0
  0
SEQEND
  5
248
100
AcDbEntity
  8
0
370
     0
390
0
  0
POLYLINE
  5
249
100
AcDbEntity
  8
0
370
    13
390
0
 62
     7
100
AcDb2dPolyline
 66
     1
 10
0.0
 20
0.0
 30
0.0
 70
     1
 71
    16
  0
VERTEX
  5
24A
100
AcDbEntity
  8
0
370
     0
390
0
100
AcDbVertex
100
AcDb2dVertex
 10
206.802155
 20
211.245331
 30
0.0
  0
VERTEX
  5
24B
100
AcDbEntity
  8
0
370
     0
390
0
100
AcDbVertex
100
AcDb2dVertex
 10
206.191925
 20
211.285675
 30
0.0
  0
VERTEX
  5
24C
100
AcDbEntity
  8
0
370
     0
390
0
100
AcDbVertex
100
AcDb2dVertex
 10
205.753159
 20
211.411758
 30
0.0
  0
VERTEX
  5
24D
100
AcDbEntity
  8
0
370
     0
390
0
100
AcDbVertex
100
AcDb2dVertex
 10
205.495956
 20
211.638702
 30
0.0
  0
VERTEX
  5
24E
100
AcDbEntity
  8
0
370
     0
390
0
100
AcDbVertex
100
AcDb2dVertex
 10
205.405182
 20
211.976593
 30
0.0
  0
VERTEX
  5
24F
100
AcDbEntity
  8
0
370
     0
390
0
100
AcDbVertex
100
AcDb2dVertex
 10
205.495956
 20
212.309448
 30
0.0
  0
VERTEX
  5
250
100
AcDbEntity
  8
0
370
     0
390
0
100
AcDbVertex
100
AcDb2dVertex
 10
205.753159
 20
212.536392
 30
0.0
  0
VERTEX
  5
251
100
AcDbEntity
  8
0
370
     0
390
0
100
AcDbVertex
100
AcDb2dVertex
 10
206.191925
 20
212.662476
 30
0.0
  0
VERTEX
  5
252
100
AcDbEntity
  8
0
370
     0
390
0
100
AcDbVertex
100
AcDb2dVertex
 10
206.802155
 20
212.70282
 30
0.0
  0
VERTEX
  5
253
100
AcDbEntity
  8
0
370
     0
390
0
100
AcDbVertex
100
AcDb2dVertex
 10
207.417419
 20
212.662476
 30
0.0
  0
VERTEX
  5
254
100
AcDbEntity
  8
0
370
     0
390
0
100
AcDbVertex
100
AcDb2dVertex
 10
207.856186
 20
212.536392
 30
0.0
  0
VERTEX
  5
255
100
AcDbEntity
  8
0
370
     0
390
0
100
AcDbVertex
100
AcDb2dVertex
 10
208.113388
 20
212.309448
 30
0.0
  0
VERTEX
  5
256
100
AcDbEntity
  8
0
370
     0
390
0
100
AcDbVertex
100
AcDb2dVertex
 10
208.199127
 20
211.976593
 30
0.0
  0
VERTEX
  5
257
100
AcDbEntity
  8
0
370
     0
390
0
100
AcDbVertex
100
AcDb2dVertex
 10
208.113388
 20
211.638702
 30
0.0
  0
VERTEX
  5
258
100
AcDbEntity
  8
0
370
     0
390
0
100
AcDbVertex
100
AcDb2dVertex
 10
207.856186
 20
211.411758
 30
0.0
  0
VERTEX
  5
259
100
AcDbEntity
  8
0
370
     0
390
0
100
AcDbVertex
100
AcDb2dVertex
 10
207.417419
 20
211.285675
 30
0.0
  0
SEQEND
  5
25A
100
AcDbEntity
  8
0
370
     0
390
0
  0
LINE
  5
25B
100
AcDbEntity
  8
0
370
    13
390
0
 62
     7
 48
0.175626
100
AcDbLine
 10
205.486771
 20
195.108582
 30
0.0
 11
212.51181
 21
195.108582
 31
0.0
210
0.0
220
0.0
230
1.0
  0
LINE
  5
25C
100
AcDbEntity
  8
0
370
    13
390
0
 62
     7
 48
0.175626
100
AcDbLine
 10
205.486771
 20
225.108582
 30
0.0
 11
212.51181
 21
225.108582
 31
0.0
210
0.0
220
0.0
230
1.0
  0
POLYLINE
  5
25D
100
AcDbEntity
  8
0
370
    13
390
0
 62
     7
100
AcDb2dPolyline
 66
     1
 10
0.0
 20
0.0
 30
0.0
 71
     3
  0
VERTEX
  5
25E
100
AcDbEntity
  8
0
370
     0
390
0
100
AcDbVertex
100
AcDb2dVertex
 10
211.029449
 20
223.176727
 30
0.0
  0
VERTEX
  5
25F
100
AcDbEntity
  8
0
370
     0
390
0
100
AcDbVertex
100
AcDb2dVertex
 10
210.51181
 20
225.108582
 30
0.0
  0
VERTEX
  5
260
100
AcDbEntity
  8
0
370
     0
390
0
100
AcDbVertex
100
AcDb2dVertex
 10
209.994171
 20
223.176727
 30
0.0
  0
SEQEND
  5
261
100
AcDbEntity
  8
0
370
     0
390
0
  0
POLYLINE
  5
262
100
AcDbEntity
  8
0
370
    13
390
0
 62
     7
100
AcDb2dPolyline
 66
     1
 10
0.0
 20
0.0
 30
0.0
 71
     3
  0
VERTEX
  5
263
100
AcDbEntity
  8
0
370
     0
390
0
100
AcDbVertex
100
AcDb2dVertex
 10
209.994171
 20
197.040436
 30
0.0
  0
VERTEX
  5
264
100
AcDbEntity
  8
0
370
     0
390
0
100
AcDbVertex
100
AcDb2dVertex
 10
210.51181
 20
195.108582
 30
0.0
  0
VERTEX
  5
265
100
AcDbEntity
  8
0
370
     0
390
0
100
AcDbVertex
100
AcDb2dVertex
 10
211.029449
 20
197.040436
 30
0.0
  0
SEQEND
  5
266
100
AcDbEntity
  8
0
370
     0
390
0
  0
LINE
  5
267
100
AcDbEntity
  8
0
370
    13
390
0
 62
     7
100
AcDbLine
 10
210.51181
 20
195.108582
 30
0.0
 11
210.51181
 21
225.108582
 31
0.0
210
0.0
220
0.0
230
1.0
  0
LINE
  5
268
100
AcDbEntity
  8
0
370
    35
390
0
 62
     7
100
AcDbLine
 10
203.486771
 20
225.108582
 30
0.0
 11
203.486771
 21
195.108582
 31
0.0
210
0.0
220
0.0
230
1.0
  0
LINE
  5
269
100
AcDbEntity
  8
0
370
    35
390
0
 62
     7
 48
0.253857
100
AcDbLine
 10
203.486771
 20
195.108582
 30
0.0
 11
193.486771
 21
193.345306
 31
0.0
210
0.0
220
0.0
230
1.0
  0
LINE
  5
26A
100
AcDbEntity
  8
0
370
    35
390
0
 62
     7
 48
0.25
100
AcDbLine
 10
193.486771
 20
225.108582
 30
0.0
 11
203.486771
 21
225.108582
 31
0.0
210
0.0
220
0.0
230
1.0
  0
LINE
  5
26B
100
AcDbEntity
  8
0
370
    35
390
0
 62
     7
100
AcDbLine
 10
193.486771
 20
193.345306
 30
0.0
 11
193.486771
 21
225.108582
 31
0.0
210
0.0
220
0.0
230
1.0
  0
ENDSEC
  0
SECTION
  2
OBJECTS
  0
DICTIONARY
  5
19
100
AcDbDictionary
280
     0
281
     1
  3
ACAD_GROUP
350
1A
  3
ACAD_MLINESTYLE
350
1B
  3
ACAD_LAYOUT
350
1E
  3
ACAD_PLOTSETTINGS
350
22
  3
ACAD_PLOTSTYLENAME
350
1F
  3
ACAD_WIPEOUT_VARS
350
23
  0
DICTIONARY
  5
1A
102
{ACAD_REACTORS
330
19
102
}
100
AcDbDictionary
280
     0
281
     1
  0
DICTIONARY
  5
1B
102
{ACAD_REACTORS
330
19
102
}
100
AcDbDictionary
280
     0
281
     1
  3
Standard
350
1C
  0
MLINESTYLE
  5
1C
102
{ACAD_REACTORS
330
1B
102
}
100
AcDbMlineStyle
  2
Standard
 70
     0
  3

 62
     0
 51
90.0
 52
90.0
 71
     2
 49
0.5
 62
   256
  6
ByLayer
 49
-0.5
 62
   256
  6
ByLayer
  0
ACDBDICTIONARYWDFLT
  5
1F
102
{ACAD_REACTORS
330
19
102
}
100
AcDbDictionary
281
     1
  3
Normal
350
1D
100
AcDbDictionaryWithDefault
340
1D
  0
ACDBPLACEHOLDER
  5
1D
102
{ACAD_REACTORS
330
1F
102
}
  0
LAYOUT
  5
20
102
{ACAD_REACTORS
330
1E
102
}
100
AcDbPlotSettings
  1

  2

  4

  6

 40
0.0
 41
0.0
 42
0.0
 43
0.0
 44
0.0
 45
0.0
 46
0.0
 47
0.0
 48
0.0
 49
0.0
140
0.0
141
0.0
142
1.0
143
1.0
 70
  1024
 72
     0
 73
     0
 74
     0
  7

 75
     0
147
1.0
148
0.0
149
0.0
100
AcDbLayout
  1
Model
 70
     0
 71
     0
 10
0.0
 20
0.0
 11
0.0
 21
0.0
 12
0.0
 22
0.0
 32
0.0
 14
0.0
 24
0.0
 34
0.0
 15
0.0
 25
0.0
 35
0.0
146
0.0
 13
0.0
 23
0.0
 33
0.0
 16
0.0
 26
0.0
 36
0.0
 17
0.0
 27
0.0
 37
0.0
 76
     0
330
A
331
0
345
0
346
0
  0
LAYOUT
  5
21
102
{ACAD_REACTORS
330
1E
102
}
100
AcDbPlotSettings
  1

  2

  4

  6

 40
0.0
 41
0.0
 42
0.0
 43
0.0
 44
0.0
 45
0.0
 46
0.0
 47
0.0
 48
0.0
 49
0.0
140
0.0
141
0.0
142
1.0
143
1.0
 70
     0
 72
     0
 73
     0
 74
     0
  7

 75
     0
147
1.0
148
0.0
149
0.0
100
AcDbLayout
  1
Layout1
 70
     0
 71
     0
 10
0.0
 20
0.0
 11
0.0
 21
0.0
 12
0.0
 22
0.0
 32
0.0
 14
0.0
 24
0.0
 34
0.0
 15
0.0
 25
0.0
 35
0.0
146
0.0
 13
0.0
 23
0.0
 33
0.0
 16
0.0
 26
0.0
 36
0.0
 17
0.0
 27
0.0
 37
0.0
 76
     0
330
B
331
0
345
0
346
0
  0
DICTIONARY
  5
1E
102
{ACAD_REACTORS
330
19
102
}
100
AcDbDictionary
280
     0
281
     1
  3
Layout1
350
21
  3
Model
350
20
  0
DICTIONARY
  5
22
102
{ACAD_REACTORS
330
19
102
}
100
AcDbDictionary
280
     0
281
     1
  0
WIPEOUTVARIABLES
  5
23
100
AcDbWipeoutVariables
 70
     1
  0
ENDSEC
  0
EOF
